<svg width="442" height="93" viewBox="0 0 442 93" fill="none" xmlns="http://www.w3.org/2000/svg">
<path d="M364.889 38.3344C365.384 37.5462 365.662 36.6844 365.662 35.7857C365.662 31.8817 360.471 28.7143 354.074 28.7143C351.696 28.7143 349.475 29.1562 347.641 29.9076C344.297 26.3719 338.057 24 330.9 24C320.23 24 311.587 29.2741 311.587 35.7857C311.587 35.9846 311.599 36.1835 311.611 36.3824C304.852 37.8335 300 41.767 300 46.3929C300 52.2489 307.785 57 317.381 57H361.799C370.333 57 377.249 52.7792 377.249 47.5714C377.249 43.0118 371.938 39.2036 364.889 38.3344Z" fill="#8E59D4"/>
<path d="M339.8 46.06V45.56L340.2 45.52C340.667 45.4667 341.02 45.4 341.26 45.32C341.513 45.2267 341.687 45.04 341.78 44.76C341.873 44.4667 341.92 43.9933 341.92 43.34V34.46C341.92 33.7933 341.873 33.32 341.78 33.04C341.687 32.76 341.513 32.58 341.26 32.5C341.02 32.4067 340.667 32.3333 340.2 32.28L339.8 32.24V31.74L342.76 31.8H342.78L345.74 31.74V32.24L345.34 32.28C344.887 32.3333 344.533 32.4067 344.28 32.5C344.027 32.58 343.853 32.76 343.76 33.04C343.667 33.32 343.62 33.7933 343.62 34.46V43.34C343.62 43.9933 343.667 44.4667 343.76 44.76C343.853 45.04 344.027 45.2267 344.28 45.32C344.533 45.4 344.887 45.4667 345.34 45.52L345.74 45.56V46.06L342.78 46H342.76L339.8 46.06ZM350.659 46.06V45.56L351.099 45.52C351.646 45.4667 352.059 45.4 352.339 45.32C352.632 45.2267 352.832 45.04 352.939 44.76C353.059 44.4667 353.119 43.9933 353.119 43.34V32.34H350.299C349.686 32.34 349.199 32.46 348.839 32.7C348.492 32.9267 348.186 33.3 347.919 33.82C347.666 34.34 347.366 35.0333 347.019 35.9L346.599 35.8L347.099 33.34L347.319 31.74L353.019 31.8H354.919L360.639 31.74L360.859 33.34L361.359 35.8L360.919 35.92C360.612 35.1467 360.326 34.4933 360.059 33.96C359.806 33.4267 359.506 33.0267 359.159 32.76C358.812 32.48 358.352 32.34 357.779 32.34H354.819V43.34C354.819 43.9933 354.872 44.4667 354.979 44.76C355.099 45.04 355.306 45.2267 355.599 45.32C355.892 45.4 356.306 45.4667 356.839 45.52L357.279 45.56V46.06L354.019 46L350.659 46.06Z" fill="white"/>
<path d="M11.7259 57.6323C10.6912 57.6323 9.75238 57.4982 8.90935 57.2299C8.10463 56.9617 7.41488 56.6743 6.84008 56.3677C6.26528 56.0612 5.80545 55.8312 5.46057 55.678C5.15401 55.5247 4.84745 55.448 4.54089 55.448C4.11938 55.448 3.83198 55.6013 3.6787 55.9079C3.52542 56.2144 3.42962 56.5976 3.3913 57.0575H2.18423L2.35667 52.9764L2.12675 47.3434H3.44878C3.6787 49.7959 4.50257 51.8651 5.92041 53.5512C7.37656 55.199 9.21591 56.0228 11.4385 56.0228C12.8563 56.0228 14.0634 55.6013 15.0597 54.7583C16.056 53.9153 16.5541 52.7848 16.5541 51.367C16.5541 49.7576 16.0943 48.5313 15.1746 47.6883C14.255 46.8453 13.1245 46.1363 11.7833 45.5615L8.67943 44.2395C6.99336 43.5114 5.65217 42.5534 4.65585 41.3655C3.69786 40.1776 3.21886 38.7406 3.21886 37.0546C3.21886 34.9086 3.9661 33.2034 5.46057 31.9389C6.99336 30.6743 8.89019 30.042 11.1511 30.042C11.9558 30.042 12.6838 30.1378 13.3353 30.3294C13.9867 30.521 14.5615 30.7126 15.0597 30.9042C16.1709 31.3641 16.899 31.594 17.2439 31.594C17.4738 31.594 17.6463 31.4982 17.7612 31.3066C17.8762 31.115 17.9528 30.7509 17.9911 30.2145H19.2557L19.1407 33.7782L19.1982 38.2041H17.9911C17.6463 36.1732 16.8799 34.5829 15.692 33.4333C14.5424 32.2454 13.1437 31.6515 11.4959 31.6515C9.96314 31.6515 8.81355 32.0921 8.04715 32.9735C7.28076 33.8549 6.89756 34.7937 6.89756 35.79C6.89756 36.8246 7.14664 37.6868 7.6448 38.3766C8.18127 39.028 8.81355 39.5645 9.54163 39.986C10.2697 40.3692 10.9403 40.7141 11.5534 41.0206L14.255 42.2277C16.4775 43.1857 18.0295 44.3545 18.9108 45.734C19.7922 47.0752 20.2328 48.5313 20.2328 50.1024C20.2328 51.4053 19.888 52.6315 19.1982 53.7811C18.5085 54.9307 17.5313 55.8696 16.2667 56.5976C15.0022 57.2874 13.4886 57.6323 11.7259 57.6323ZM24.0076 57.1724V55.8504L24.9273 55.7354C26.0386 55.5822 26.8816 55.4097 27.4564 55.2181C28.0695 54.9882 28.4911 54.5092 28.721 53.7811C28.9509 53.0147 29.0659 51.7693 29.0659 50.045V37.8018C29.0659 36.0774 28.9509 34.8512 28.721 34.1231C28.5294 33.3567 28.127 32.8585 27.5139 32.6286C26.9391 32.3987 26.0961 32.2263 24.9848 32.1113L24.0651 31.9963V30.6743L31.1351 30.8467H46.2523V33.3759L46.5972 37.2845H45.3901C45.0069 36.0966 44.6045 35.1386 44.183 34.4105C43.7998 33.6824 43.1867 33.1459 42.3437 32.8011C41.5006 32.4562 40.1978 32.2837 38.435 32.2837H33.0894V42.86H37.8602C38.5117 42.86 39.0673 42.5534 39.5272 41.9403C39.987 41.2889 40.2552 40.0627 40.3319 38.2616H41.5389L41.3665 43.5498L41.5389 49.2977H40.3319C40.3319 47.4201 40.102 46.098 39.6421 45.3316C39.1823 44.5652 38.5308 44.182 37.6878 44.182H33.0894V52.5166C33.0894 53.4746 33.3385 54.2218 33.8367 54.7583C34.3731 55.2948 35.3886 55.563 36.8831 55.563H40.6767C42.1712 55.563 43.2825 55.2948 44.0106 54.7583C44.777 54.2218 45.3326 53.4363 45.6775 52.4016C46.0607 51.367 46.4056 50.1408 46.7121 48.7229H47.9192L47.5168 53.3788V57H31.0776L24.0076 57.1724ZM65.0149 57.6323C62.5241 57.6323 60.359 57 58.5197 55.7354C56.6803 54.4709 55.2625 52.8423 54.2662 50.8497C53.2699 48.8187 52.7717 46.692 52.7717 44.4694C52.7717 41.6721 53.3465 39.2005 54.4961 37.0546C55.684 34.8703 57.2551 33.1651 59.2095 31.9389C61.2021 30.6743 63.4055 30.042 65.8196 30.042C66.5094 30.042 67.3332 30.1378 68.2912 30.3294C69.2876 30.521 70.2072 30.8276 71.0503 31.2491C71.7017 31.5557 72.2382 31.8047 72.6597 31.9963C73.0812 32.1496 73.4261 32.2263 73.6943 32.2263C73.9626 32.2263 74.1733 32.1113 74.3266 31.8814C74.4799 31.6515 74.5757 31.2299 74.614 30.6168H76.051L75.8786 34.7554L75.936 39.4112H74.5565C74.0967 36.8821 73.0812 34.9853 71.5101 33.7207C69.939 32.4179 68.1188 31.7664 66.0495 31.7664C63.9419 31.7664 62.2559 32.3604 60.9913 33.5483C59.7268 34.7362 58.8071 36.3073 58.2323 38.2616C57.6575 40.1776 57.3701 42.2469 57.3701 44.4694C57.3701 46.5387 57.6575 48.4547 58.2323 50.2174C58.8454 51.9418 59.7651 53.3213 60.9913 54.3559C62.2559 55.3906 63.8653 55.9079 65.8196 55.9079C67.5057 55.9079 68.981 55.5055 70.2455 54.7008C71.5101 53.8961 72.5256 52.8231 73.292 51.482C74.0584 50.1024 74.5182 48.5888 74.6715 46.9411H76.051L75.936 51.9418L76.1085 57H75.0738C75.0355 56.6168 74.9206 56.1953 74.729 55.7354C74.5374 55.2756 74.1925 55.0457 73.6943 55.0457C73.5027 55.0457 73.2345 55.1223 72.8896 55.2756C72.5447 55.4289 72.1424 55.6205 71.6825 55.8504C70.9161 56.2336 69.9773 56.6168 68.866 57C67.7548 57.4215 66.4711 57.6323 65.0149 57.6323ZM96.9601 57.5748C94.8525 57.5748 92.9365 57.2491 91.2122 56.5976C89.5261 55.9079 88.1849 54.8158 87.1886 53.3213C86.1923 51.8268 85.6941 49.8917 85.6941 47.5159V37.8018C85.6941 36.0774 85.5792 34.8512 85.3492 34.1231C85.1193 33.3567 84.6978 32.8585 84.0847 32.6286C83.5099 32.3987 82.6668 32.2263 81.5556 32.1113L80.6359 31.9963V30.6743L87.7059 30.8467L94.7759 30.6743V31.9963L93.8562 32.1113C92.745 32.2263 91.8828 32.3987 91.2696 32.6286C90.6948 32.8585 90.2925 33.3567 90.0626 34.1231C89.8326 34.8512 89.7177 36.0774 89.7177 37.8018V47.5159C89.7177 50.1599 90.4074 52.21 91.787 53.6662C93.2048 55.1223 95.1399 55.8504 97.5924 55.8504C99.815 55.8504 101.616 55.1798 102.995 53.8386C104.375 52.4974 105.065 50.3324 105.065 47.3434V37.8593C105.065 36.1349 104.95 34.9086 104.72 34.1806C104.49 33.4142 104.068 32.916 103.455 32.6861C102.881 32.4562 102.037 32.2837 100.926 32.1688L100.007 32.0538V30.7318L105.812 30.8467L111.617 30.7318V32.0538L110.698 32.1688C109.586 32.2837 108.724 32.4562 108.111 32.6861C107.536 32.916 107.134 33.4142 106.904 34.1806C106.674 34.9086 106.559 36.1349 106.559 37.8593V47.3434C106.559 50.7539 105.678 53.3213 103.915 55.0457C102.191 56.7318 99.8724 57.5748 96.9601 57.5748ZM138.036 57.6323C136.695 57.6323 135.584 57.2491 134.702 56.4827C133.821 55.678 133.131 54.0494 132.633 51.5969C132.441 50.524 132.135 49.451 131.713 48.378C131.292 47.3051 130.602 46.4237 129.644 45.734C128.686 45.0059 127.268 44.6419 125.391 44.6419H122.057V50.1024C122.057 51.7885 122.172 53.0147 122.402 53.7811C122.632 54.5092 123.034 54.9882 123.609 55.2181C124.222 55.4097 125.084 55.5822 126.195 55.7354L127.115 55.8504V57.1724L120.102 57L113.09 57.1724V55.8504L114.01 55.7354C115.121 55.5822 115.964 55.4097 116.539 55.2181C117.152 54.9882 117.573 54.5092 117.803 53.7811C118.033 53.0147 118.148 51.7885 118.148 50.1024V37.8018C118.148 36.269 118.033 35.1194 117.803 34.353C117.612 33.5866 117.228 33.0501 116.654 32.7436C116.117 32.437 115.351 32.2454 114.354 32.1688L113.09 32.0538V30.7318L120.16 30.8467H128.092C129.817 30.8467 131.407 31.0575 132.863 31.479C134.319 31.8622 135.488 32.552 136.369 33.5483C137.251 34.5063 137.691 35.8666 137.691 37.6293C137.691 39.2388 137.251 40.5225 136.369 41.4805C135.526 42.4002 134.472 43.0899 133.208 43.5498C131.943 44.0096 130.698 44.3162 129.472 44.4694C131.503 44.661 133.15 45.2741 134.415 46.3088C135.718 47.3434 136.58 49.1636 137.001 51.7693C137.308 53.5704 137.749 54.6817 138.323 55.1032C138.937 55.4864 139.684 55.678 140.565 55.678C140.833 55.678 141.102 55.6396 141.37 55.563C141.638 55.4864 141.868 55.4097 142.06 55.3331L142.347 56.6551C141.849 56.8467 141.236 57.0575 140.508 57.2874C139.78 57.5173 138.956 57.6323 138.036 57.6323ZM127.517 32.2263H122.057V43.2624H126.655C128.993 43.2624 130.66 42.8217 131.656 41.9403C132.652 41.0206 133.15 39.5837 133.15 37.6293C133.15 36.0582 132.767 34.7745 132.001 33.7782C131.273 32.7436 129.778 32.2263 127.517 32.2263ZM143.289 57.1724V55.8504L144.209 55.7354C145.32 55.5822 146.163 55.4097 146.738 55.2181C147.351 54.9882 147.773 54.5092 148.003 53.7811C148.232 53.0147 148.347 51.7693 148.347 50.045V37.8018C148.347 36.0774 148.232 34.8512 148.003 34.1231C147.811 33.3567 147.409 32.8585 146.795 32.6286C146.221 32.3987 145.378 32.2263 144.266 32.1113L143.347 31.9963V30.6743L150.417 30.8467H165.534V33.3759L165.879 37.2845H164.672C164.288 36.0966 163.886 35.1386 163.465 34.4105C163.081 33.6824 162.468 33.1459 161.625 32.8011C160.782 32.4562 159.479 32.2837 157.717 32.2837H152.371V42.86H157.142C157.793 42.86 158.349 42.5534 158.809 41.9403C159.269 41.2889 159.537 40.0627 159.613 38.2616H160.82L160.648 43.5498L160.82 49.2977H159.613C159.613 47.4201 159.384 46.098 158.924 45.3316C158.464 44.5652 157.812 44.182 156.969 44.182H152.371V52.5166C152.371 53.4746 152.62 54.2218 153.118 54.7583C153.655 55.2948 154.67 55.563 156.165 55.563H159.958C161.453 55.563 162.564 55.2948 163.292 54.7583C164.059 54.2218 164.614 53.4363 164.959 52.4016C165.342 51.367 165.687 50.1408 165.994 48.7229H167.201L166.798 53.3788V57H150.359L143.289 57.1724ZM197.517 57.6323C193.608 57.6323 190.236 56.7318 187.4 54.9307C184.603 53.1297 182.438 50.6581 180.905 47.5159C179.411 44.3353 178.663 40.6949 178.663 36.5947C178.663 33.5291 179.162 30.7126 180.158 28.1452C181.154 25.5778 182.534 23.3361 184.296 21.4201C186.059 19.5041 188.09 18.0288 190.389 16.9941C192.727 15.9212 195.218 15.3847 197.862 15.3847C200.199 15.3847 202.115 15.653 203.61 16.1894C205.142 16.6876 206.292 17.1283 207.058 17.5115C207.557 17.7414 208.016 17.9521 208.438 18.1437C208.859 18.297 209.147 18.3737 209.3 18.3737C209.722 18.3737 210.067 18.2204 210.335 17.9138C210.603 17.5689 210.775 16.9941 210.852 16.1894H212.289L212.174 22.9145L212.289 29.6397H210.852C210.277 25.6544 208.898 22.5697 206.714 20.3854C204.529 18.2012 201.636 17.1091 198.034 17.1091C195.505 17.1091 193.378 17.6264 191.654 18.6611C189.929 19.6574 188.55 21.056 187.515 22.8571C186.481 24.6198 185.714 26.689 185.216 29.0649C184.756 31.4024 184.526 33.9123 184.526 36.5947C184.526 40.6183 184.948 44.0671 185.791 46.9411C186.672 49.815 188.09 52.0376 190.044 53.6087C192.037 55.1415 194.7 55.9079 198.034 55.9079C200.525 55.9079 202.69 55.3331 204.529 54.1835C206.369 53.0339 207.844 51.5011 208.955 49.5851C210.105 47.6691 210.795 45.5615 211.024 43.2624H212.404L212.289 50.2749L212.461 57H211.082L210.91 56.3677C210.756 55.8696 210.565 55.4097 210.335 54.9882C210.143 54.5284 209.798 54.2985 209.3 54.2985C209.032 54.2985 208.706 54.3751 208.323 54.5284C207.978 54.6817 207.576 54.8733 207.116 55.1032C206.12 55.6013 204.817 56.157 203.207 56.7701C201.598 57.3449 199.701 57.6323 197.517 57.6323ZM215.262 57.1724V55.8504L216.182 55.7354C217.293 55.5822 218.136 55.4097 218.711 55.2181C219.324 54.9882 219.746 54.5092 219.976 53.7811C220.206 53.0147 220.32 51.7693 220.32 50.045V37.8018C220.32 36.0774 220.206 34.8512 219.976 34.1231C219.746 33.3567 219.324 32.8585 218.711 32.6286C218.136 32.3987 217.293 32.2263 216.182 32.1113L215.262 31.9963V30.6743L222.332 30.8467L229.402 30.6743V31.9963L228.483 32.1113C227.371 32.2263 226.509 32.3987 225.896 32.6286C225.321 32.8585 224.919 33.3567 224.689 34.1231C224.459 34.8512 224.344 36.0774 224.344 37.8018V50.1599C224.344 51.846 224.536 53.168 224.919 54.126C225.34 55.084 226.356 55.563 227.965 55.563H231.127C233.388 55.563 235.016 54.8924 236.012 53.5512C237.047 52.1717 237.679 50.1982 237.909 47.6308H239.231L238.829 57.115L222.332 57L215.262 57.1724ZM258.237 57.6323C256.36 57.6323 254.539 57.3066 252.777 56.6551C251.014 55.9654 249.424 55.0074 248.006 53.7811C246.626 52.5549 245.515 51.0988 244.672 49.4127C243.867 47.7266 243.465 45.8873 243.465 43.8946C243.465 41.7487 243.887 39.8327 244.73 38.1467C245.573 36.4606 246.703 35.0044 248.121 33.7782C249.577 32.552 251.167 31.6323 252.892 31.0192C254.654 30.3677 256.436 30.042 258.237 30.042C259.923 30.042 261.629 30.3486 263.353 30.9617C265.077 31.5365 266.649 32.4179 268.066 33.6058C269.522 34.7937 270.672 36.2498 271.515 37.9742C272.396 39.6603 272.837 41.6338 272.837 43.8946C272.837 45.8873 272.416 47.7266 271.573 49.4127C270.73 51.0604 269.599 52.4974 268.181 53.7237C266.802 54.9499 265.25 55.9079 263.525 56.5976C261.801 57.2874 260.038 57.6323 258.237 57.6323ZM258.237 55.9079C260.613 55.9079 262.529 55.3714 263.985 54.2985C265.441 53.1872 266.514 51.731 267.204 49.93C267.894 48.0907 268.239 46.0789 268.239 43.8946C268.239 40.2543 267.453 37.3228 265.882 35.1002C264.349 32.8777 261.801 31.7664 258.237 31.7664C255.708 31.7664 253.696 32.3221 252.202 33.4333C250.707 34.5063 249.635 35.9624 248.983 37.8018C248.37 39.6028 248.063 41.6338 248.063 43.8946C248.063 46.1172 248.427 48.1481 249.156 49.9875C249.922 51.7885 251.052 53.2255 252.547 54.2985C254.041 55.3714 255.938 55.9079 258.237 55.9079ZM293.154 57.5748C291.047 57.5748 289.131 57.2491 287.406 56.5976C285.72 55.9079 284.379 54.8158 283.383 53.3213C282.387 51.8268 281.888 49.8917 281.888 47.5159V37.8018C281.888 36.0774 281.773 34.8512 281.544 34.1231C281.314 33.3567 280.892 32.8585 280.279 32.6286C279.704 32.3987 278.861 32.2263 277.75 32.1113L276.83 31.9963V30.6743L283.9 30.8467L290.97 30.6743V31.9963L290.051 32.1113C288.939 32.2263 288.077 32.3987 287.464 32.6286C286.889 32.8585 286.487 33.3567 286.257 34.1231C286.027 34.8512 285.912 36.0774 285.912 37.8018V47.5159C285.912 50.1599 286.602 52.21 287.981 53.6662C289.399 55.1223 291.334 55.8504 293.787 55.8504C296.009 55.8504 297.81 55.1798 299.19 53.8386C300.569 52.4974 301.259 50.3324 301.259 47.3434V37.8593C301.259 36.1349 301.144 34.9086 300.914 34.1806C300.684 33.4142 300.263 32.916 299.65 32.6861C299.075 32.4562 298.232 32.2837 297.121 32.1688L296.201 32.0538V30.7318L302.006 30.8467L307.812 30.7318V32.0538L306.892 32.1688C305.781 32.2837 304.919 32.4562 304.305 32.6861C303.731 32.916 303.328 33.4142 303.098 34.1806C302.868 34.9086 302.754 36.1349 302.754 37.8593V47.3434C302.754 50.7539 301.872 53.3213 300.109 55.0457C298.385 56.7318 296.067 57.5748 293.154 57.5748ZM309.802 57.1724V56.0228L310.606 55.9079C311.603 55.7929 312.369 55.6396 312.905 55.448C313.442 55.2564 313.806 54.8158 313.998 54.126C314.227 53.4363 314.342 52.325 314.342 50.7922V37.8018C314.342 36.0774 314.227 34.8512 313.998 34.1231C313.768 33.3567 313.346 32.8585 312.733 32.6286C312.158 32.3987 311.315 32.2263 310.204 32.1113L309.284 31.9963V30.6743L316.354 30.8467H322.045C322.696 30.8467 323.654 30.9042 324.919 31.0192C326.183 31.0958 327.563 31.3449 329.057 31.7664C330.59 32.1496 332.046 32.8011 333.426 33.7207C334.805 34.6021 335.936 35.8475 336.817 37.4569C337.698 39.0663 338.139 41.1356 338.139 43.6647C338.139 46.3854 337.603 48.6271 336.53 50.3898C335.495 52.1142 334.173 53.4554 332.563 54.4134C330.954 55.3714 329.268 56.042 327.505 56.4252C325.781 56.8084 324.21 57 322.792 57H316.124L309.802 57.1724ZM321.068 55.563H322.964C323.309 55.563 323.884 55.5247 324.689 55.448C325.532 55.3331 326.451 55.1032 327.448 54.7583C328.444 54.3751 329.402 53.762 330.322 52.9189C331.28 52.0759 332.046 50.9072 332.621 49.4127C333.234 47.9182 333.541 46.0022 333.541 43.6647C333.541 41.1739 333.215 39.1813 332.563 37.6868C331.912 36.154 331.069 35.0044 330.034 34.238C329 33.4717 327.869 32.9543 326.643 32.6861C325.417 32.4179 324.229 32.2837 323.079 32.2837H318.366V51.0796C318.366 52.5741 318.558 53.7045 318.941 54.4709C319.362 55.199 320.071 55.563 321.068 55.563Z" fill="white"/>
</svg>
