<svg width="534" height="87" viewBox="0 0 534 87" fill="none" xmlns="http://www.w3.org/2000/svg">
<g clip-path="url(#clip0_96_3)">
<path d="M84.9842 32.8244C82.6524 27.2054 78.6291 22.5443 73.5314 19.5557C68.4337 16.5672 62.5429 15.4161 56.7621 16.2791C50.9814 17.142 45.6298 19.9713 41.528 24.3332C37.4261 28.6951 34.8004 34.3488 34.0534 40.4274C30.4188 41.341 27.2304 43.624 25.0937 46.8427C22.957 50.0614 22.0209 53.9917 22.463 57.8872C22.9052 61.7827 24.6948 65.3721 27.4921 67.9738C30.2894 70.5755 33.8995 72.0082 37.6368 72H79.5709C84.1431 71.9867 88.5584 70.2488 92.0116 67.1032C95.4648 63.9575 97.7257 59.6137 98.382 54.8641C99.0383 50.1144 98.0463 45.2754 95.5868 41.2296C93.1274 37.1837 89.3644 34.2006 84.9842 32.8244ZM79.5709 63.9968H37.6368C35.6147 63.9968 33.6754 63.1536 32.2456 61.6527C30.8157 60.1518 30.0124 58.1162 30.0124 55.9936C30.0124 53.871 30.8157 51.8354 32.2456 50.3345C33.6754 48.8336 35.6147 47.9904 37.6368 47.9904C38.6479 47.9904 39.6175 47.5688 40.3324 46.8184C41.0474 46.0679 41.449 45.0501 41.449 43.9888C41.4588 39.256 43.0665 34.6801 45.9865 31.074C48.9066 27.4679 52.95 25.0651 57.3983 24.2925C61.8466 23.5199 66.4117 24.4275 70.2828 26.854C74.1538 29.2806 77.0801 33.069 78.5416 37.5463C78.7653 38.2264 79.1595 38.8307 79.6828 39.2955C80.2061 39.7603 80.8391 40.0684 81.5152 40.1873C84.3095 40.7285 86.8118 42.3423 88.5346 44.7142C90.2574 47.0861 91.0774 50.0462 90.8347 53.018C90.592 55.9898 89.3041 58.7603 87.2219 60.7898C85.1397 62.8194 82.4122 63.9626 79.5709 63.9968Z" fill="#595BD4"/>
<path d="M161.469 20.6168C161.061 20.3536 160.584 20.1667 160.074 20.0697C159.564 19.9728 159.033 19.9683 158.52 20.0567C154.769 20.6839 150.897 20.6919 147.142 20.0801C143.387 19.4684 139.829 18.2499 136.686 16.4996C136.099 16.1743 135.4 16 134.685 16C133.97 16 133.272 16.1743 132.684 16.4996C129.542 18.2499 125.984 19.4684 122.229 20.0801C118.474 20.6919 114.601 20.6839 110.85 20.0567C110.338 19.9683 109.807 19.9728 109.296 20.0697C108.786 20.1667 108.31 20.3536 107.902 20.6168C107.494 20.8805 107.166 21.2135 106.942 21.5916C106.717 21.9696 106.601 22.3831 106.603 22.8015V43.6681C106.6 47.6838 107.799 51.6421 110.101 55.2132C112.403 58.7843 115.741 61.8649 119.837 64.1985L132.649 71.4808C133.244 71.8185 133.955 72 134.685 72C135.415 72 136.127 71.8185 136.721 71.4808L149.534 64.1985C153.63 61.8649 156.968 58.7843 159.269 55.2132C161.571 51.6421 162.771 47.6838 162.768 43.6681V22.8015C162.769 22.3831 162.654 21.9696 162.429 21.5916C162.204 21.2135 161.876 20.8805 161.469 20.6168ZM155.747 43.6681C155.75 46.7904 154.818 49.868 153.029 52.6449C151.24 55.4218 148.646 57.8177 145.462 59.6331L134.685 65.767L123.909 59.6331C120.725 57.8177 118.131 55.4218 116.342 52.6449C114.553 49.868 113.621 46.7904 113.624 43.6681V26.0225C120.983 26.5251 128.353 25.1627 134.685 22.1293C141.018 25.1627 148.388 26.5251 155.747 26.0225V43.6681ZM140.091 37.254L130.648 44.8164L127.524 42.2956C126.863 41.7682 125.967 41.4719 125.032 41.4719C124.097 41.4719 123.201 41.7682 122.54 42.2956C121.879 42.823 121.507 43.5384 121.507 44.2843C121.507 45.0301 121.879 45.7455 122.54 46.2729L128.156 50.7543C128.482 51.0168 128.871 51.2252 129.298 51.3674C129.726 51.5096 130.185 51.5828 130.648 51.5828C131.112 51.5828 131.571 51.5096 131.998 51.3674C132.426 51.2252 132.814 51.0168 133.141 50.7543L145.216 41.2033C145.877 40.6759 146.249 39.9605 146.249 39.2147C146.249 38.4688 145.877 37.7535 145.216 37.226C144.555 36.6986 143.659 36.4023 142.724 36.4023C141.789 36.4023 140.893 36.6986 140.232 37.226L140.091 37.254Z" fill="#34A853"/>
<path d="M511.8 39.06V38.56L512.2 38.52C512.667 38.4667 513.02 38.4 513.26 38.32C513.513 38.2267 513.687 38.04 513.78 37.76C513.873 37.4667 513.92 36.9933 513.92 36.34V27.46C513.92 26.7933 513.873 26.32 513.78 26.04C513.687 25.76 513.513 25.58 513.26 25.5C513.02 25.4067 512.667 25.3333 512.2 25.28L511.8 25.24V24.74L514.76 24.8H514.78L517.74 24.74V25.24L517.34 25.28C516.887 25.3333 516.533 25.4067 516.28 25.5C516.027 25.58 515.853 25.76 515.76 26.04C515.667 26.32 515.62 26.7933 515.62 27.46V36.34C515.62 36.9933 515.667 37.4667 515.76 37.76C515.853 38.04 516.027 38.2267 516.28 38.32C516.533 38.4 516.887 38.4667 517.34 38.52L517.74 38.56V39.06L514.78 39H514.76L511.8 39.06ZM522.659 39.06V38.56L523.099 38.52C523.646 38.4667 524.059 38.4 524.339 38.32C524.632 38.2267 524.832 38.04 524.939 37.76C525.059 37.4667 525.119 36.9933 525.119 36.34V25.34H522.299C521.686 25.34 521.199 25.46 520.839 25.7C520.492 25.9267 520.186 26.3 519.919 26.82C519.666 27.34 519.366 28.0333 519.019 28.9L518.599 28.8L519.099 26.34L519.319 24.74L525.019 24.8H526.919L532.639 24.74L532.859 26.34L533.359 28.8L532.919 28.92C532.612 28.1467 532.326 27.4933 532.059 26.96C531.806 26.4267 531.506 26.0267 531.159 25.76C530.812 25.48 530.352 25.34 529.779 25.34H526.819V36.34C526.819 36.9933 526.872 37.4667 526.979 37.76C527.099 38.04 527.306 38.2267 527.599 38.32C527.892 38.4 528.306 38.4667 528.839 38.52L529.279 38.56V39.06L526.019 39L522.659 39.06Z" fill="#FDFDFD"/>
<path d="M185.949 57.6323C184.914 57.6323 183.975 57.4982 183.132 57.2299C182.328 56.9617 181.638 56.6743 181.063 56.3677C180.488 56.0612 180.028 55.8312 179.684 55.678C179.377 55.5247 179.07 55.448 178.764 55.448C178.342 55.448 178.055 55.6013 177.902 55.9079C177.748 56.2144 177.653 56.5976 177.614 57.0575H176.407L176.58 52.9764L176.35 47.3434H177.672C177.902 49.7959 178.726 51.8651 180.143 53.5512C181.6 55.199 183.439 56.0228 185.661 56.0228C187.079 56.0228 188.286 55.6013 189.283 54.7583C190.279 53.9153 190.777 52.7848 190.777 51.367C190.777 49.7576 190.317 48.5313 189.398 47.6883C188.478 46.8453 187.348 46.1363 186.006 45.5615L182.902 44.2395C181.216 43.5114 179.875 42.5534 178.879 41.3655C177.921 40.1776 177.442 38.7406 177.442 37.0546C177.442 34.9086 178.189 33.2034 179.684 31.9389C181.216 30.6743 183.113 30.042 185.374 30.042C186.179 30.042 186.907 30.1378 187.558 30.3294C188.21 30.521 188.785 30.7126 189.283 30.9042C190.394 31.3641 191.122 31.594 191.467 31.594C191.697 31.594 191.869 31.4982 191.984 31.3066C192.099 31.115 192.176 30.7509 192.214 30.2145H193.479L193.364 33.7782L193.421 38.2041H192.214C191.869 36.1732 191.103 34.5829 189.915 33.4333C188.765 32.2454 187.367 31.6515 185.719 31.6515C184.186 31.6515 183.037 32.0921 182.27 32.9735C181.504 33.8549 181.121 34.7937 181.121 35.79C181.121 36.8246 181.37 37.6868 181.868 38.3766C182.404 39.028 183.037 39.5645 183.765 39.986C184.493 40.3692 185.163 40.7141 185.776 41.0206L188.478 42.2277C190.7 43.1857 192.252 44.3545 193.134 45.734C194.015 47.0752 194.456 48.5313 194.456 50.1024C194.456 51.4053 194.111 52.6315 193.421 53.7811C192.731 54.9307 191.754 55.8696 190.49 56.5976C189.225 57.2874 187.712 57.6323 185.949 57.6323Z" fill="white"/>
<path d="M198.231 57.1724V55.8504L199.15 55.7354C200.262 55.5822 201.105 55.4097 201.679 55.2181C202.293 54.9882 202.714 54.5092 202.944 53.7811C203.174 53.0147 203.289 51.7693 203.289 50.045V37.8018C203.289 36.0774 203.174 34.8512 202.944 34.1231C202.752 33.3567 202.35 32.8585 201.737 32.6286C201.162 32.3987 200.319 32.2263 199.208 32.1113L198.288 31.9963V30.6743L205.358 30.8467H220.475V33.3759L220.82 37.2845H219.613C219.23 36.0966 218.828 35.1386 218.406 34.4105C218.023 33.6824 217.41 33.1459 216.567 32.8011C215.724 32.4562 214.421 32.2837 212.658 32.2837H207.312V42.86H212.083C212.735 42.86 213.29 42.5534 213.75 41.9403C214.21 41.2889 214.478 40.0627 214.555 38.2616H215.762L215.589 43.5498L215.762 49.2977H214.555C214.555 47.4201 214.325 46.098 213.865 45.3316C213.405 44.5652 212.754 44.182 211.911 44.182H207.312V52.5166C207.312 53.4746 207.561 54.2218 208.06 54.7583C208.596 55.2948 209.612 55.563 211.106 55.563H214.9C216.394 55.563 217.505 55.2948 218.234 54.7583C219 54.2218 219.556 53.4363 219.9 52.4016C220.284 51.367 220.629 50.1408 220.935 48.7229H222.142L221.74 53.3788V57H205.301L198.231 57.1724ZM239.238 57.6323C236.747 57.6323 234.582 57 232.743 55.7354C230.903 54.4709 229.486 52.8423 228.489 50.8497C227.493 48.8187 226.995 46.692 226.995 44.4694C226.995 41.6721 227.57 39.2005 228.719 37.0546C229.907 34.8703 231.478 33.1651 233.432 31.9389C235.425 30.6743 237.628 30.042 240.043 30.042C240.732 30.042 241.556 30.1378 242.514 30.3294C243.511 30.521 244.43 30.8276 245.273 31.2491C245.925 31.5557 246.461 31.8047 246.883 31.9963C247.304 32.1496 247.649 32.2263 247.917 32.2263C248.186 32.2263 248.396 32.1113 248.55 31.8814C248.703 31.6515 248.799 31.2299 248.837 30.6168H250.274L250.102 34.7554L250.159 39.4112H248.78C248.32 36.8821 247.304 34.9853 245.733 33.7207C244.162 32.4179 242.342 31.7664 240.273 31.7664C238.165 31.7664 236.479 32.3604 235.214 33.5483C233.95 34.7362 233.03 36.3073 232.455 38.2616C231.88 40.1776 231.593 42.2469 231.593 44.4694C231.593 46.5387 231.88 48.4547 232.455 50.2174C233.068 51.9418 233.988 53.3213 235.214 54.3559C236.479 55.3906 238.088 55.9079 240.043 55.9079C241.729 55.9079 243.204 55.5055 244.469 54.7008C245.733 53.8961 246.749 52.8231 247.515 51.482C248.281 50.1024 248.741 48.5888 248.894 46.9411H250.274L250.159 51.9418L250.331 57H249.297C249.259 56.6168 249.144 56.1953 248.952 55.7354C248.76 55.2756 248.415 55.0457 247.917 55.0457C247.726 55.0457 247.457 55.1223 247.113 55.2756C246.768 55.4289 246.365 55.6205 245.906 55.8504C245.139 56.2336 244.2 56.6168 243.089 57C241.978 57.4215 240.694 57.6323 239.238 57.6323ZM271.183 57.5748C269.076 57.5748 267.16 57.2491 265.435 56.5976C263.749 55.9079 262.408 54.8158 261.412 53.3213C260.415 51.8268 259.917 49.8917 259.917 47.5159V37.8018C259.917 36.0774 259.802 34.8512 259.572 34.1231C259.342 33.3567 258.921 32.8585 258.308 32.6286C257.733 32.3987 256.89 32.2263 255.779 32.1113L254.859 31.9963V30.6743L261.929 30.8467L268.999 30.6743V31.9963L268.079 32.1113C266.968 32.2263 266.106 32.3987 265.493 32.6286C264.918 32.8585 264.515 33.3567 264.286 34.1231C264.056 34.8512 263.941 36.0774 263.941 37.8018V47.5159C263.941 50.1599 264.63 52.21 266.01 53.6662C267.428 55.1223 269.363 55.8504 271.815 55.8504C274.038 55.8504 275.839 55.1798 277.218 53.8386C278.598 52.4974 279.288 50.3324 279.288 47.3434V37.8593C279.288 36.1349 279.173 34.9086 278.943 34.1806C278.713 33.4142 278.291 32.916 277.678 32.6861C277.104 32.4562 276.26 32.2837 275.149 32.1688L274.23 32.0538V30.7318L280.035 30.8467L285.84 30.7318V32.0538L284.921 32.1688C283.809 32.2837 282.947 32.4562 282.334 32.6861C281.759 32.916 281.357 33.4142 281.127 34.1806C280.897 34.9086 280.782 36.1349 280.782 37.8593V47.3434C280.782 50.7539 279.901 53.3213 278.138 55.0457C276.414 56.7318 274.095 57.5748 271.183 57.5748ZM312.259 57.6323C310.918 57.6323 309.807 57.2491 308.925 56.4827C308.044 55.678 307.354 54.0494 306.856 51.5969C306.664 50.524 306.358 49.451 305.936 48.378C305.515 47.3051 304.825 46.4237 303.867 45.734C302.909 45.0059 301.491 44.6419 299.614 44.6419H296.28V50.1024C296.28 51.7885 296.395 53.0147 296.625 53.7811C296.855 54.5092 297.257 54.9882 297.832 55.2181C298.445 55.4097 299.307 55.5822 300.418 55.7354L301.338 55.8504V57.1724L294.325 57L287.313 57.1724V55.8504L288.233 55.7354C289.344 55.5822 290.187 55.4097 290.762 55.2181C291.375 54.9882 291.796 54.5092 292.026 53.7811C292.256 53.0147 292.371 51.7885 292.371 50.1024V37.8018C292.371 36.269 292.256 35.1194 292.026 34.353C291.835 33.5866 291.451 33.0501 290.877 32.7436C290.34 32.437 289.574 32.2454 288.577 32.1688L287.313 32.0538V30.7318L294.383 30.8467H302.315C304.039 30.8467 305.63 31.0575 307.086 31.479C308.542 31.8622 309.711 32.552 310.592 33.5483C311.474 34.5063 311.914 35.8666 311.914 37.6293C311.914 39.2388 311.474 40.5225 310.592 41.4805C309.749 42.4002 308.695 43.0899 307.431 43.5498C306.166 44.0096 304.921 44.3162 303.695 44.4694C305.726 44.661 307.373 45.2741 308.638 46.3088C309.941 47.3434 310.803 49.1636 311.224 51.7693C311.531 53.5704 311.972 54.6817 312.546 55.1032C313.16 55.4864 313.907 55.678 314.788 55.678C315.056 55.678 315.325 55.6396 315.593 55.563C315.861 55.4864 316.091 55.4097 316.283 55.3331L316.57 56.6551C316.072 56.8467 315.459 57.0575 314.731 57.2874C314.003 57.5173 313.179 57.6323 312.259 57.6323ZM301.74 32.2263H296.28V43.2624H300.878C303.216 43.2624 304.883 42.8217 305.879 41.9403C306.875 41.0206 307.373 39.5837 307.373 37.6293C307.373 36.0582 306.99 34.7745 306.224 33.7782C305.496 32.7436 304.001 32.2263 301.74 32.2263ZM317.512 57.1724V55.8504L318.432 55.7354C319.543 55.5822 320.386 55.4097 320.961 55.2181C321.574 54.9882 321.996 54.5092 322.226 53.7811C322.455 53.0147 322.57 51.7693 322.57 50.045V37.8018C322.57 36.0774 322.455 34.8512 322.226 34.1231C322.034 33.3567 321.632 32.8585 321.018 32.6286C320.444 32.3987 319.601 32.2263 318.489 32.1113L317.57 31.9963V30.6743L324.64 30.8467H339.757V33.3759L340.102 37.2845H338.895C338.511 36.0966 338.109 35.1386 337.688 34.4105C337.304 33.6824 336.691 33.1459 335.848 32.8011C335.005 32.4562 333.702 32.2837 331.94 32.2837H326.594V42.86H331.365C332.016 42.86 332.572 42.5534 333.032 41.9403C333.492 41.2889 333.76 40.0627 333.836 38.2616H335.043L334.871 43.5498L335.043 49.2977H333.836C333.836 47.4201 333.606 46.098 333.147 45.3316C332.687 44.5652 332.035 44.182 331.192 44.182H326.594V52.5166C326.594 53.4746 326.843 54.2218 327.341 54.7583C327.878 55.2948 328.893 55.563 330.388 55.563H334.181C335.676 55.563 336.787 55.2948 337.515 54.7583C338.282 54.2218 338.837 53.4363 339.182 52.4016C339.565 51.367 339.91 50.1408 340.217 48.7229H341.424L341.021 53.3788V57H324.582L317.512 57.1724ZM371.74 57.6323C367.831 57.6323 364.459 56.7318 361.623 54.9307C358.826 53.1297 356.661 50.6581 355.128 47.5159C353.634 44.3353 352.886 40.6949 352.886 36.5947C352.886 33.5291 353.385 30.7126 354.381 28.1452C355.377 25.5778 356.757 23.3361 358.519 21.4201C360.282 19.5041 362.313 18.0288 364.612 16.9941C366.95 15.9212 369.441 15.3847 372.085 15.3847C374.422 15.3847 376.338 15.653 377.833 16.1894C379.365 16.6876 380.515 17.1283 381.281 17.5115C381.78 17.7414 382.239 17.9521 382.661 18.1437C383.082 18.297 383.37 18.3737 383.523 18.3737C383.945 18.3737 384.289 18.2204 384.558 17.9138C384.826 17.5689 384.998 16.9941 385.075 16.1894H386.512L386.397 22.9145L386.512 29.6397H385.075C384.5 25.6544 383.121 22.5697 380.937 20.3854C378.752 18.2012 375.859 17.1091 372.257 17.1091C369.728 17.1091 367.601 17.6264 365.877 18.6611C364.152 19.6574 362.773 21.056 361.738 22.8571C360.704 24.6198 359.937 26.689 359.439 29.0649C358.979 31.4024 358.749 33.9123 358.749 36.5947C358.749 40.6183 359.171 44.0671 360.014 46.9411C360.895 49.815 362.313 52.0376 364.267 53.6087C366.26 55.1415 368.923 55.9079 372.257 55.9079C374.748 55.9079 376.913 55.3331 378.752 54.1835C380.592 53.0339 382.067 51.5011 383.178 49.5851C384.328 47.6691 385.018 45.5615 385.247 43.2624H386.627L386.512 50.2749L386.684 57H385.305L385.133 56.3677C384.979 55.8696 384.788 55.4097 384.558 54.9882C384.366 54.5284 384.021 54.2985 383.523 54.2985C383.255 54.2985 382.929 54.3751 382.546 54.5284C382.201 54.6817 381.799 54.8733 381.339 55.1032C380.343 55.6013 379.04 56.157 377.43 56.7701C375.821 57.3449 373.924 57.6323 371.74 57.6323Z" fill="#FBFBFB"/>
<path d="M391.21 57.1724V55.8504L392.129 55.7354C393.241 55.5822 394.084 55.4097 394.658 55.2181C395.272 54.9882 395.693 54.5092 395.923 53.7811C396.153 53.0147 396.268 51.7693 396.268 50.045V37.8018C396.268 36.0774 396.153 34.8512 395.923 34.1231C395.693 33.3567 395.272 32.8585 394.658 32.6286C394.084 32.3987 393.241 32.2263 392.129 32.1113L391.21 31.9963V30.6743L398.28 30.8467L405.35 30.6743V31.9963L404.43 32.1113C403.319 32.2263 402.457 32.3987 401.843 32.6286C401.269 32.8585 400.866 33.3567 400.636 34.1231C400.406 34.8512 400.291 36.0774 400.291 37.8018V50.1599C400.291 51.846 400.483 53.168 400.866 54.126C401.288 55.084 402.303 55.563 403.913 55.563H407.074C409.335 55.563 410.964 54.8924 411.96 53.5512C412.994 52.1717 413.627 50.1982 413.857 47.6308H415.179L414.776 57.115L398.28 57L391.21 57.1724ZM430.736 57.6323C428.858 57.6323 427.038 57.3066 425.275 56.6551C423.513 55.9654 421.922 55.0074 420.505 53.7811C419.125 52.5549 418.014 51.0988 417.171 49.4127C416.366 47.7266 415.964 45.8873 415.964 43.8946C415.964 41.7487 416.385 39.8327 417.228 38.1467C418.071 36.4606 419.202 35.0044 420.619 33.7782C422.076 32.552 423.666 31.6323 425.39 31.0192C427.153 30.3677 428.935 30.042 430.736 30.042C432.422 30.042 434.127 30.3486 435.852 30.9617C437.576 31.5365 439.147 32.4179 440.565 33.6058C442.021 34.7937 443.171 36.2498 444.014 37.9742C444.895 39.6603 445.336 41.6338 445.336 43.8946C445.336 45.8873 444.914 47.7266 444.071 49.4127C443.228 51.0604 442.098 52.4974 440.68 53.7237C439.3 54.9499 437.748 55.9079 436.024 56.5976C434.3 57.2874 432.537 57.6323 430.736 57.6323ZM430.736 55.9079C433.112 55.9079 435.028 55.3714 436.484 54.2985C437.94 53.1872 439.013 51.731 439.703 49.93C440.392 48.0907 440.737 46.0789 440.737 43.8946C440.737 40.2543 439.952 37.3228 438.381 35.1002C436.848 32.8777 434.3 31.7664 430.736 31.7664C428.207 31.7664 426.195 32.3221 424.701 33.4333C423.206 34.5063 422.133 35.9624 421.482 37.8018C420.869 39.6028 420.562 41.6338 420.562 43.8946C420.562 46.1172 420.926 48.1481 421.654 49.9875C422.421 51.7885 423.551 53.2255 425.045 54.2985C426.54 55.3714 428.437 55.9079 430.736 55.9079ZM462.204 57.5748C460.097 57.5748 458.181 57.2491 456.456 56.5976C454.77 55.9079 453.429 54.8158 452.433 53.3213C451.436 51.8268 450.938 49.8917 450.938 47.5159V37.8018C450.938 36.0774 450.823 34.8512 450.593 34.1231C450.363 33.3567 449.942 32.8585 449.329 32.6286C448.754 32.3987 447.911 32.2263 446.8 32.1113L445.88 31.9963V30.6743L452.95 30.8467L460.02 30.6743V31.9963L459.1 32.1113C457.989 32.2263 457.127 32.3987 456.514 32.6286C455.939 32.8585 455.537 33.3567 455.307 34.1231C455.077 34.8512 454.962 36.0774 454.962 37.8018V47.5159C454.962 50.1599 455.652 52.21 457.031 53.6662C458.449 55.1223 460.384 55.8504 462.837 55.8504C465.059 55.8504 466.86 55.1798 468.24 53.8386C469.619 52.4974 470.309 50.3324 470.309 47.3434V37.8593C470.309 36.1349 470.194 34.9086 469.964 34.1806C469.734 33.4142 469.313 32.916 468.699 32.6861C468.125 32.4562 467.282 32.2837 466.17 32.1688L465.251 32.0538V30.7318L471.056 30.8467L476.862 30.7318V32.0538L475.942 32.1688C474.831 32.2837 473.968 32.4562 473.355 32.6861C472.78 32.916 472.378 33.4142 472.148 34.1806C471.918 34.9086 471.803 36.1349 471.803 37.8593V47.3434C471.803 50.7539 470.922 53.3213 469.159 55.0457C467.435 56.7318 465.117 57.5748 462.204 57.5748ZM475.403 57.1724V56.0228L476.207 55.9079C477.204 55.7929 477.97 55.6396 478.506 55.448C479.043 55.2564 479.407 54.8158 479.599 54.126C479.828 53.4363 479.943 52.325 479.943 50.7922V37.8018C479.943 36.0774 479.828 34.8512 479.599 34.1231C479.369 33.3567 478.947 32.8585 478.334 32.6286C477.759 32.3987 476.916 32.2263 475.805 32.1113L474.885 31.9963V30.6743L481.955 30.8467H487.646C488.297 30.8467 489.255 30.9042 490.52 31.0192C491.784 31.0958 493.164 31.3449 494.658 31.7664C496.191 32.1496 497.647 32.8011 499.027 33.7207C500.406 34.6021 501.537 35.8475 502.418 37.4569C503.299 39.0663 503.74 41.1356 503.74 43.6647C503.74 46.3854 503.204 48.6271 502.131 50.3898C501.096 52.1142 499.774 53.4554 498.165 54.4134C496.555 55.3714 494.869 56.042 493.106 56.4252C491.382 56.8084 489.811 57 488.393 57H481.725L475.403 57.1724ZM486.669 55.563H488.565C488.91 55.563 489.485 55.5247 490.29 55.448C491.133 55.3331 492.052 55.1032 493.049 54.7583C494.045 54.3751 495.003 53.762 495.923 52.9189C496.881 52.0759 497.647 50.9072 498.222 49.4127C498.835 47.9182 499.142 46.0022 499.142 43.6647C499.142 41.1739 498.816 39.1813 498.165 37.6868C497.513 36.154 496.67 35.0044 495.635 34.238C494.601 33.4717 493.47 32.9543 492.244 32.6861C491.018 32.4179 489.83 32.2837 488.68 32.2837H483.967V51.0796C483.967 52.5741 484.159 53.7045 484.542 54.4709C484.963 55.199 485.672 55.563 486.669 55.563Z" fill="url(#paint0_linear_96_3)"/>
</g>
<defs>
<linearGradient id="paint0_linear_96_3" x1="224.149" y1="6.29605" x2="281.171" y2="65.3723" gradientUnits="userSpaceOnUse">
<stop offset="0.11416" stop-color="#676FDF"/>
<stop offset="0.871519" stop-color="#F5F4F8"/>
</linearGradient>
<clipPath id="clip0_96_3">
<rect width="534" height="87" fill="white"/>
</clipPath>
</defs>
</svg>
