<svg width="680" height="96" viewBox="0 0 680 96" fill="none" xmlns="http://www.w3.org/2000/svg">
<path d="M183.445 41.8244C181.12 36.2054 177.108 31.5443 172.025 28.5557C166.943 25.5672 161.069 24.4161 155.305 25.2791C149.542 26.142 144.206 28.9713 140.116 33.3332C136.026 37.6951 133.408 43.3488 132.663 49.4274C129.039 50.341 125.86 52.624 123.73 55.8427C121.599 59.0614 120.666 62.9917 121.107 66.8872C121.548 70.7827 123.332 74.3721 126.121 76.9738C128.91 79.5755 132.51 81.0082 136.236 81H178.047C182.606 80.9867 187.008 79.2488 190.451 76.1032C193.894 72.9575 196.149 68.6137 196.803 63.8641C197.458 59.1144 196.468 54.2754 194.016 50.2296C191.564 46.1837 187.812 43.2006 183.445 41.8244ZM178.047 72.9968H136.236C134.22 72.9968 132.286 72.1536 130.861 70.6527C129.435 69.1518 128.634 67.1162 128.634 64.9936C128.634 62.871 129.435 60.8354 130.861 59.3345C132.286 57.8336 134.22 56.9904 136.236 56.9904C137.244 56.9904 138.211 56.5688 138.924 55.8184C139.637 55.0679 140.037 54.0501 140.037 52.9888C140.047 48.256 141.65 43.6801 144.561 40.074C147.473 36.4679 151.504 34.0651 155.94 33.2925C160.375 32.5199 164.927 33.4275 168.786 35.854C172.646 38.2806 175.564 42.069 177.021 46.5463C177.244 47.2264 177.637 47.8307 178.159 48.2955C178.681 48.7603 179.312 49.0684 179.986 49.1873C182.772 49.7285 185.267 51.3423 186.985 53.7142C188.702 56.0861 189.52 59.0462 189.278 62.018C189.036 64.9898 187.752 67.7603 185.676 69.7898C183.6 71.8194 180.88 72.9626 178.047 72.9968Z" fill="#595BD4"/>
<path d="M259.705 29.6168C259.298 29.3536 258.823 29.1667 258.314 29.0697C257.806 28.9728 257.276 28.9683 256.765 29.0567C253.025 29.6839 249.164 29.6919 245.42 29.0801C241.676 28.4684 238.128 27.2499 234.995 25.4996C234.409 25.1743 233.713 25 233 25C232.287 25 231.591 25.1743 231.005 25.4996C227.872 27.2499 224.324 28.4684 220.58 29.0801C216.836 29.6919 212.975 29.6839 209.235 29.0567C208.724 28.9683 208.194 28.9728 207.686 29.0697C207.177 29.1667 206.702 29.3536 206.295 29.6168C205.889 29.8805 205.562 30.2135 205.338 30.5916C205.114 30.9696 204.998 31.3831 205 31.8015V52.6681C204.997 56.6838 206.193 60.6421 208.488 64.2132C210.783 67.7843 214.111 70.8649 218.195 73.1985L230.97 80.4808C231.563 80.8185 232.272 81 233 81C233.728 81 234.437 80.8185 235.03 80.4808L247.805 73.1985C251.889 70.8649 255.217 67.7843 257.512 64.2132C259.807 60.6421 261.003 56.6838 261 52.6681V31.8015C261.002 31.3831 260.886 30.9696 260.662 30.5916C260.438 30.2135 260.111 29.8805 259.705 29.6168ZM254 52.6681C254.003 55.7904 253.073 58.868 251.29 61.6449C249.506 64.4218 246.919 66.8177 243.745 68.6331L233 74.767L222.255 68.6331C219.081 66.8177 216.494 64.4218 214.71 61.6449C212.927 58.868 211.997 55.7904 212 52.6681V35.0225C219.338 35.5251 226.686 34.1627 233 31.1293C239.314 34.1627 246.662 35.5251 254 35.0225V52.6681ZM238.39 46.254L228.975 53.8164L225.86 51.2956C225.201 50.7682 224.307 50.4719 223.375 50.4719C222.443 50.4719 221.549 50.7682 220.89 51.2956C220.231 51.823 219.861 52.5384 219.861 53.2843C219.861 54.0301 220.231 54.7455 220.89 55.2729L226.49 59.7543C226.815 60.0168 227.202 60.2252 227.629 60.3674C228.055 60.5096 228.513 60.5828 228.975 60.5828C229.437 60.5828 229.895 60.5096 230.321 60.3674C230.748 60.2252 231.135 60.0168 231.46 59.7543L243.5 50.2033C244.159 49.6759 244.529 48.9605 244.529 48.2147C244.529 47.4688 244.159 46.7535 243.5 46.226C242.841 45.6986 241.947 45.4023 241.015 45.4023C240.083 45.4023 239.189 45.6986 238.53 46.226L238.39 46.254Z" fill="#34A853"/>
<path d="M610.8 48.06V47.56L611.2 47.52C611.667 47.4667 612.02 47.4 612.26 47.32C612.513 47.2267 612.687 47.04 612.78 46.76C612.873 46.4667 612.92 45.9933 612.92 45.34V36.46C612.92 35.7933 612.873 35.32 612.78 35.04C612.687 34.76 612.513 34.58 612.26 34.5C612.02 34.4067 611.667 34.3333 611.2 34.28L610.8 34.24V33.74L613.76 33.8H613.78L616.74 33.74V34.24L616.34 34.28C615.887 34.3333 615.533 34.4067 615.28 34.5C615.027 34.58 614.853 34.76 614.76 35.04C614.667 35.32 614.62 35.7933 614.62 36.46V45.34C614.62 45.9933 614.667 46.4667 614.76 46.76C614.853 47.04 615.027 47.2267 615.28 47.32C615.533 47.4 615.887 47.4667 616.34 47.52L616.74 47.56V48.06L613.78 48H613.76L610.8 48.06ZM621.659 48.06V47.56L622.099 47.52C622.646 47.4667 623.059 47.4 623.339 47.32C623.632 47.2267 623.832 47.04 623.939 46.76C624.059 46.4667 624.119 45.9933 624.119 45.34V34.34H621.299C620.686 34.34 620.199 34.46 619.839 34.7C619.492 34.9267 619.186 35.3 618.919 35.82C618.666 36.34 618.366 37.0333 618.019 37.9L617.599 37.8L618.099 35.34L618.319 33.74L624.019 33.8H625.919L631.639 33.74L631.859 35.34L632.359 37.8L631.919 37.92C631.612 37.1467 631.326 36.4933 631.059 35.96C630.806 35.4267 630.506 35.0267 630.159 34.76C629.812 34.48 629.352 34.34 628.779 34.34H625.819V45.34C625.819 45.9933 625.872 46.4667 625.979 46.76C626.099 47.04 626.306 47.2267 626.599 47.32C626.892 47.4 627.306 47.4667 627.839 47.52L628.279 47.56V48.06L625.019 48L621.659 48.06Z" fill="#FDFDFD"/>
<path d="M284.949 66.6323C283.914 66.6323 282.975 66.4982 282.132 66.2299C281.328 65.9617 280.638 65.6743 280.063 65.3677C279.488 65.0612 279.028 64.8312 278.684 64.678C278.377 64.5247 278.07 64.448 277.764 64.448C277.342 64.448 277.055 64.6013 276.902 64.9079C276.748 65.2144 276.653 65.5976 276.614 66.0575H275.407L275.58 61.9764L275.35 56.3434H276.672C276.902 58.7959 277.726 60.8651 279.143 62.5512C280.6 64.199 282.439 65.0228 284.661 65.0228C286.079 65.0228 287.286 64.6013 288.283 63.7583C289.279 62.9153 289.777 61.7848 289.777 60.367C289.777 58.7576 289.317 57.5313 288.398 56.6883C287.478 55.8453 286.348 55.1363 285.006 54.5615L281.902 53.2395C280.216 52.5114 278.875 51.5534 277.879 50.3655C276.921 49.1776 276.442 47.7406 276.442 46.0546C276.442 43.9086 277.189 42.2034 278.684 40.9389C280.216 39.6743 282.113 39.042 284.374 39.042C285.179 39.042 285.907 39.1378 286.558 39.3294C287.21 39.521 287.785 39.7126 288.283 39.9042C289.394 40.3641 290.122 40.594 290.467 40.594C290.697 40.594 290.869 40.4982 290.984 40.3066C291.099 40.115 291.176 39.7509 291.214 39.2145H292.479L292.364 42.7782L292.421 47.2041H291.214C290.869 45.1732 290.103 43.5829 288.915 42.4333C287.765 41.2454 286.367 40.6515 284.719 40.6515C283.186 40.6515 282.037 41.0921 281.27 41.9735C280.504 42.8549 280.121 43.7937 280.121 44.79C280.121 45.8246 280.37 46.6868 280.868 47.3766C281.404 48.028 282.037 48.5645 282.765 48.986C283.493 49.3692 284.163 49.7141 284.776 50.0206L287.478 51.2277C289.7 52.1857 291.252 53.3545 292.134 54.734C293.015 56.0752 293.456 57.5313 293.456 59.1024C293.456 60.4053 293.111 61.6315 292.421 62.7811C291.731 63.9307 290.754 64.8696 289.49 65.5976C288.225 66.2874 286.712 66.6323 284.949 66.6323Z" fill="white"/>
<path d="M297.231 66.1724V64.8504L298.15 64.7354C299.262 64.5822 300.105 64.4097 300.679 64.2181C301.293 63.9882 301.714 63.5092 301.944 62.7811C302.174 62.0147 302.289 60.7693 302.289 59.045V46.8018C302.289 45.0774 302.174 43.8512 301.944 43.1231C301.752 42.3567 301.35 41.8585 300.737 41.6286C300.162 41.3987 299.319 41.2263 298.208 41.1113L297.288 40.9963V39.6743L304.358 39.8467H319.475V42.3759L319.82 46.2845H318.613C318.23 45.0966 317.828 44.1386 317.406 43.4105C317.023 42.6824 316.41 42.1459 315.567 41.8011C314.724 41.4562 313.421 41.2837 311.658 41.2837H306.312V51.86H311.083C311.735 51.86 312.29 51.5534 312.75 50.9403C313.21 50.2889 313.478 49.0627 313.555 47.2616H314.762L314.589 52.5498L314.762 58.2977H313.555C313.555 56.4201 313.325 55.098 312.865 54.3316C312.405 53.5652 311.754 53.182 310.911 53.182H306.312V61.5166C306.312 62.4746 306.561 63.2218 307.06 63.7583C307.596 64.2948 308.612 64.563 310.106 64.563H313.9C315.394 64.563 316.505 64.2948 317.234 63.7583C318 63.2218 318.556 62.4363 318.9 61.4016C319.284 60.367 319.629 59.1408 319.935 57.7229H321.142L320.74 62.3788V66H304.301L297.231 66.1724ZM338.238 66.6323C335.747 66.6323 333.582 66 331.743 64.7354C329.903 63.4709 328.486 61.8423 327.489 59.8497C326.493 57.8187 325.995 55.692 325.995 53.4694C325.995 50.6721 326.57 48.2005 327.719 46.0546C328.907 43.8703 330.478 42.1651 332.432 40.9389C334.425 39.6743 336.628 39.042 339.043 39.042C339.732 39.042 340.556 39.1378 341.514 39.3294C342.511 39.521 343.43 39.8276 344.273 40.2491C344.925 40.5557 345.461 40.8047 345.883 40.9963C346.304 41.1496 346.649 41.2263 346.917 41.2263C347.186 41.2263 347.396 41.1113 347.55 40.8814C347.703 40.6515 347.799 40.2299 347.837 39.6168H349.274L349.102 43.7554L349.159 48.4112H347.78C347.32 45.8821 346.304 43.9853 344.733 42.7207C343.162 41.4179 341.342 40.7664 339.273 40.7664C337.165 40.7664 335.479 41.3604 334.214 42.5483C332.95 43.7362 332.03 45.3073 331.455 47.2616C330.88 49.1776 330.593 51.2469 330.593 53.4694C330.593 55.5387 330.88 57.4547 331.455 59.2174C332.068 60.9418 332.988 62.3213 334.214 63.3559C335.479 64.3906 337.088 64.9079 339.043 64.9079C340.729 64.9079 342.204 64.5055 343.469 63.7008C344.733 62.8961 345.749 61.8231 346.515 60.482C347.281 59.1024 347.741 57.5888 347.894 55.9411H349.274L349.159 60.9418L349.331 66H348.297C348.259 65.6168 348.144 65.1953 347.952 64.7354C347.76 64.2756 347.415 64.0457 346.917 64.0457C346.726 64.0457 346.457 64.1223 346.113 64.2756C345.768 64.4289 345.365 64.6205 344.906 64.8504C344.139 65.2336 343.2 65.6168 342.089 66C340.978 66.4215 339.694 66.6323 338.238 66.6323ZM370.183 66.5748C368.076 66.5748 366.16 66.2491 364.435 65.5976C362.749 64.9079 361.408 63.8158 360.412 62.3213C359.415 60.8268 358.917 58.8917 358.917 56.5159V46.8018C358.917 45.0774 358.802 43.8512 358.572 43.1231C358.342 42.3567 357.921 41.8585 357.308 41.6286C356.733 41.3987 355.89 41.2263 354.779 41.1113L353.859 40.9963V39.6743L360.929 39.8467L367.999 39.6743V40.9963L367.079 41.1113C365.968 41.2263 365.106 41.3987 364.493 41.6286C363.918 41.8585 363.515 42.3567 363.286 43.1231C363.056 43.8512 362.941 45.0774 362.941 46.8018V56.5159C362.941 59.1599 363.63 61.21 365.01 62.6662C366.428 64.1223 368.363 64.8504 370.815 64.8504C373.038 64.8504 374.839 64.1798 376.218 62.8386C377.598 61.4974 378.288 59.3324 378.288 56.3434V46.8593C378.288 45.1349 378.173 43.9086 377.943 43.1806C377.713 42.4142 377.291 41.916 376.678 41.6861C376.104 41.4562 375.26 41.2837 374.149 41.1688L373.23 41.0538V39.7318L379.035 39.8467L384.84 39.7318V41.0538L383.921 41.1688C382.809 41.2837 381.947 41.4562 381.334 41.6861C380.759 41.916 380.357 42.4142 380.127 43.1806C379.897 43.9086 379.782 45.1349 379.782 46.8593V56.3434C379.782 59.7539 378.901 62.3213 377.138 64.0457C375.414 65.7318 373.095 66.5748 370.183 66.5748ZM411.259 66.6323C409.918 66.6323 408.807 66.2491 407.925 65.4827C407.044 64.678 406.354 63.0494 405.856 60.5969C405.664 59.524 405.358 58.451 404.936 57.378C404.515 56.3051 403.825 55.4237 402.867 54.734C401.909 54.0059 400.491 53.6419 398.614 53.6419H395.28V59.1024C395.28 60.7885 395.395 62.0147 395.625 62.7811C395.855 63.5092 396.257 63.9882 396.832 64.2181C397.445 64.4097 398.307 64.5822 399.418 64.7354L400.338 64.8504V66.1724L393.325 66L386.313 66.1724V64.8504L387.233 64.7354C388.344 64.5822 389.187 64.4097 389.762 64.2181C390.375 63.9882 390.796 63.5092 391.026 62.7811C391.256 62.0147 391.371 60.7885 391.371 59.1024V46.8018C391.371 45.269 391.256 44.1194 391.026 43.353C390.835 42.5866 390.451 42.0501 389.877 41.7436C389.34 41.437 388.574 41.2454 387.577 41.1688L386.313 41.0538V39.7318L393.383 39.8467H401.315C403.039 39.8467 404.63 40.0575 406.086 40.479C407.542 40.8622 408.711 41.552 409.592 42.5483C410.474 43.5063 410.914 44.8666 410.914 46.6293C410.914 48.2388 410.474 49.5225 409.592 50.4805C408.749 51.4002 407.695 52.0899 406.431 52.5498C405.166 53.0096 403.921 53.3162 402.695 53.4694C404.726 53.661 406.373 54.2741 407.638 55.3088C408.941 56.3434 409.803 58.1636 410.224 60.7693C410.531 62.5704 410.972 63.6817 411.546 64.1032C412.16 64.4864 412.907 64.678 413.788 64.678C414.056 64.678 414.325 64.6396 414.593 64.563C414.861 64.4864 415.091 64.4097 415.283 64.3331L415.57 65.6551C415.072 65.8467 414.459 66.0575 413.731 66.2874C413.003 66.5173 412.179 66.6323 411.259 66.6323ZM400.74 41.2263H395.28V52.2624H399.878C402.216 52.2624 403.883 51.8217 404.879 50.9403C405.875 50.0206 406.373 48.5837 406.373 46.6293C406.373 45.0582 405.99 43.7745 405.224 42.7782C404.496 41.7436 403.001 41.2263 400.74 41.2263ZM416.512 66.1724V64.8504L417.432 64.7354C418.543 64.5822 419.386 64.4097 419.961 64.2181C420.574 63.9882 420.996 63.5092 421.226 62.7811C421.455 62.0147 421.57 60.7693 421.57 59.045V46.8018C421.57 45.0774 421.455 43.8512 421.226 43.1231C421.034 42.3567 420.632 41.8585 420.018 41.6286C419.444 41.3987 418.601 41.2263 417.489 41.1113L416.57 40.9963V39.6743L423.64 39.8467H438.757V42.3759L439.102 46.2845H437.895C437.511 45.0966 437.109 44.1386 436.688 43.4105C436.304 42.6824 435.691 42.1459 434.848 41.8011C434.005 41.4562 432.702 41.2837 430.94 41.2837H425.594V51.86H430.365C431.016 51.86 431.572 51.5534 432.032 50.9403C432.492 50.2889 432.76 49.0627 432.836 47.2616H434.043L433.871 52.5498L434.043 58.2977H432.836C432.836 56.4201 432.606 55.098 432.147 54.3316C431.687 53.5652 431.035 53.182 430.192 53.182H425.594V61.5166C425.594 62.4746 425.843 63.2218 426.341 63.7583C426.878 64.2948 427.893 64.563 429.388 64.563H433.181C434.676 64.563 435.787 64.2948 436.515 63.7583C437.282 63.2218 437.837 62.4363 438.182 61.4016C438.565 60.367 438.91 59.1408 439.217 57.7229H440.424L440.021 62.3788V66H423.582L416.512 66.1724ZM470.74 66.6323C466.831 66.6323 463.459 65.7318 460.623 63.9307C457.826 62.1297 455.661 59.6581 454.128 56.5159C452.634 53.3353 451.886 49.6949 451.886 45.5947C451.886 42.5291 452.385 39.7126 453.381 37.1452C454.377 34.5778 455.757 32.3361 457.519 30.4201C459.282 28.5041 461.313 27.0288 463.612 25.9941C465.95 24.9212 468.441 24.3847 471.085 24.3847C473.422 24.3847 475.338 24.653 476.833 25.1894C478.365 25.6876 479.515 26.1283 480.281 26.5115C480.78 26.7414 481.239 26.9521 481.661 27.1437C482.082 27.297 482.37 27.3737 482.523 27.3737C482.945 27.3737 483.289 27.2204 483.558 26.9138C483.826 26.5689 483.998 25.9941 484.075 25.1894H485.512L485.397 31.9145L485.512 38.6397H484.075C483.5 34.6544 482.121 31.5697 479.937 29.3854C477.752 27.2012 474.859 26.1091 471.257 26.1091C468.728 26.1091 466.601 26.6264 464.877 27.6611C463.152 28.6574 461.773 30.056 460.738 31.8571C459.704 33.6198 458.937 35.689 458.439 38.0649C457.979 40.4024 457.749 42.9123 457.749 45.5947C457.749 49.6183 458.171 53.0671 459.014 55.9411C459.895 58.815 461.313 61.0376 463.267 62.6087C465.26 64.1415 467.923 64.9079 471.257 64.9079C473.748 64.9079 475.913 64.3331 477.752 63.1835C479.592 62.0339 481.067 60.5011 482.178 58.5851C483.328 56.6691 484.018 54.5615 484.247 52.2624H485.627L485.512 59.2749L485.684 66H484.305L484.133 65.3677C483.979 64.8696 483.788 64.4097 483.558 63.9882C483.366 63.5284 483.021 63.2985 482.523 63.2985C482.255 63.2985 481.929 63.3751 481.546 63.5284C481.201 63.6817 480.799 63.8733 480.339 64.1032C479.343 64.6013 478.04 65.157 476.43 65.7701C474.821 66.3449 472.924 66.6323 470.74 66.6323Z" fill="#FBFBFB"/>
<path d="M490.21 66.1724V64.8504L491.129 64.7354C492.241 64.5822 493.084 64.4097 493.658 64.2181C494.272 63.9882 494.693 63.5092 494.923 62.7811C495.153 62.0147 495.268 60.7693 495.268 59.045V46.8018C495.268 45.0774 495.153 43.8512 494.923 43.1231C494.693 42.3567 494.272 41.8585 493.658 41.6286C493.084 41.3987 492.241 41.2263 491.129 41.1113L490.21 40.9963V39.6743L497.28 39.8467L504.35 39.6743V40.9963L503.43 41.1113C502.319 41.2263 501.457 41.3987 500.843 41.6286C500.269 41.8585 499.866 42.3567 499.636 43.1231C499.406 43.8512 499.291 45.0774 499.291 46.8018V59.1599C499.291 60.846 499.483 62.168 499.866 63.126C500.288 64.084 501.303 64.563 502.913 64.563H506.074C508.335 64.563 509.964 63.8924 510.96 62.5512C511.994 61.1717 512.627 59.1982 512.857 56.6308H514.179L513.776 66.115L497.28 66L490.21 66.1724ZM529.736 66.6323C527.858 66.6323 526.038 66.3066 524.275 65.6551C522.513 64.9654 520.922 64.0074 519.505 62.7811C518.125 61.5549 517.014 60.0988 516.171 58.4127C515.366 56.7266 514.964 54.8873 514.964 52.8946C514.964 50.7487 515.385 48.8327 516.228 47.1467C517.071 45.4606 518.202 44.0044 519.619 42.7782C521.076 41.552 522.666 40.6323 524.39 40.0192C526.153 39.3677 527.935 39.042 529.736 39.042C531.422 39.042 533.127 39.3486 534.852 39.9617C536.576 40.5365 538.147 41.4179 539.565 42.6058C541.021 43.7937 542.171 45.2498 543.014 46.9742C543.895 48.6603 544.336 50.6338 544.336 52.8946C544.336 54.8873 543.914 56.7266 543.071 58.4127C542.228 60.0604 541.098 61.4974 539.68 62.7237C538.3 63.9499 536.748 64.9079 535.024 65.5976C533.3 66.2874 531.537 66.6323 529.736 66.6323ZM529.736 64.9079C532.112 64.9079 534.028 64.3714 535.484 63.2985C536.94 62.1872 538.013 60.731 538.703 58.93C539.392 57.0907 539.737 55.0789 539.737 52.8946C539.737 49.2543 538.952 46.3228 537.381 44.1002C535.848 41.8777 533.3 40.7664 529.736 40.7664C527.207 40.7664 525.195 41.3221 523.701 42.4333C522.206 43.5063 521.133 44.9624 520.482 46.8018C519.869 48.6028 519.562 50.6338 519.562 52.8946C519.562 55.1172 519.926 57.1481 520.654 58.9875C521.421 60.7885 522.551 62.2255 524.045 63.2985C525.54 64.3714 527.437 64.9079 529.736 64.9079ZM561.204 66.5748C559.097 66.5748 557.181 66.2491 555.456 65.5976C553.77 64.9079 552.429 63.8158 551.433 62.3213C550.436 60.8268 549.938 58.8917 549.938 56.5159V46.8018C549.938 45.0774 549.823 43.8512 549.593 43.1231C549.363 42.3567 548.942 41.8585 548.329 41.6286C547.754 41.3987 546.911 41.2263 545.8 41.1113L544.88 40.9963V39.6743L551.95 39.8467L559.02 39.6743V40.9963L558.1 41.1113C556.989 41.2263 556.127 41.3987 555.514 41.6286C554.939 41.8585 554.537 42.3567 554.307 43.1231C554.077 43.8512 553.962 45.0774 553.962 46.8018V56.5159C553.962 59.1599 554.652 61.21 556.031 62.6662C557.449 64.1223 559.384 64.8504 561.837 64.8504C564.059 64.8504 565.86 64.1798 567.24 62.8386C568.619 61.4974 569.309 59.3324 569.309 56.3434V46.8593C569.309 45.1349 569.194 43.9086 568.964 43.1806C568.734 42.4142 568.313 41.916 567.699 41.6861C567.125 41.4562 566.282 41.2837 565.17 41.1688L564.251 41.0538V39.7318L570.056 39.8467L575.862 39.7318V41.0538L574.942 41.1688C573.831 41.2837 572.968 41.4562 572.355 41.6861C571.78 41.916 571.378 42.4142 571.148 43.1806C570.918 43.9086 570.803 45.1349 570.803 46.8593V56.3434C570.803 59.7539 569.922 62.3213 568.159 64.0457C566.435 65.7318 564.117 66.5748 561.204 66.5748ZM574.403 66.1724V65.0228L575.207 64.9079C576.204 64.7929 576.97 64.6396 577.506 64.448C578.043 64.2564 578.407 63.8158 578.599 63.126C578.828 62.4363 578.943 61.325 578.943 59.7922V46.8018C578.943 45.0774 578.828 43.8512 578.599 43.1231C578.369 42.3567 577.947 41.8585 577.334 41.6286C576.759 41.3987 575.916 41.2263 574.805 41.1113L573.885 40.9963V39.6743L580.955 39.8467H586.646C587.297 39.8467 588.255 39.9042 589.52 40.0192C590.784 40.0958 592.164 40.3449 593.658 40.7664C595.191 41.1496 596.647 41.8011 598.027 42.7207C599.406 43.6021 600.537 44.8475 601.418 46.4569C602.299 48.0663 602.74 50.1356 602.74 52.6647C602.74 55.3854 602.204 57.6271 601.131 59.3898C600.096 61.1142 598.774 62.4554 597.165 63.4134C595.555 64.3714 593.869 65.042 592.106 65.4252C590.382 65.8084 588.811 66 587.393 66H580.725L574.403 66.1724ZM585.669 64.563H587.565C587.91 64.563 588.485 64.5247 589.29 64.448C590.133 64.3331 591.052 64.1032 592.049 63.7583C593.045 63.3751 594.003 62.762 594.923 61.9189C595.881 61.0759 596.647 59.9072 597.222 58.4127C597.835 56.9182 598.142 55.0022 598.142 52.6647C598.142 50.1739 597.816 48.1813 597.165 46.6868C596.513 45.154 595.67 44.0044 594.635 43.238C593.601 42.4717 592.47 41.9543 591.244 41.6861C590.018 41.4179 588.83 41.2837 587.68 41.2837H582.967V60.0796C582.967 61.5741 583.159 62.7045 583.542 63.4709C583.963 64.199 584.672 64.563 585.669 64.563Z" fill="url(#paint0_linear_96_3)"/>
<defs>
<linearGradient id="paint0_linear_96_3" x1="323.149" y1="15.2961" x2="380.171" y2="74.3723" gradientUnits="userSpaceOnUse">
<stop offset="0.11416" stop-color="#676FDF"/>
<stop offset="0.871519" stop-color="#F5F4F8"/>
</linearGradient>
</defs>
</svg>
