<svg width="349" height="70" viewBox="0 0 349 70" fill="none" xmlns="http://www.w3.org/2000/svg">
<g clip-path="url(#clip0_81_30)">
<path d="M315.8 42.06V41.56L316.2 41.52C316.667 41.4667 317.02 41.4 317.26 41.32C317.513 41.2267 317.687 41.04 317.78 40.76C317.873 40.4667 317.92 39.9933 317.92 39.34V30.46C317.92 29.7933 317.873 29.32 317.78 29.04C317.687 28.76 317.513 28.58 317.26 28.5C317.02 28.4067 316.667 28.3333 316.2 28.28L315.8 28.24V27.74L318.76 27.8H318.78L321.74 27.74V28.24L321.34 28.28C320.887 28.3333 320.533 28.4067 320.28 28.5C320.027 28.58 319.853 28.76 319.76 29.04C319.667 29.32 319.62 29.7933 319.62 30.46V39.34C319.62 39.9933 319.667 40.4667 319.76 40.76C319.853 41.04 320.027 41.2267 320.28 41.32C320.533 41.4 320.887 41.4667 321.34 41.52L321.74 41.56V42.06L318.78 42H318.76L315.8 42.06ZM326.659 42.06V41.56L327.099 41.52C327.646 41.4667 328.059 41.4 328.339 41.32C328.632 41.2267 328.832 41.04 328.939 40.76C329.059 40.4667 329.119 39.9933 329.119 39.34V28.34H326.299C325.686 28.34 325.199 28.46 324.839 28.7C324.492 28.9267 324.186 29.3 323.919 29.82C323.666 30.34 323.366 31.0333 323.019 31.9L322.599 31.8L323.099 29.34L323.319 27.74L329.019 27.8H330.919L336.639 27.74L336.859 29.34L337.359 31.8L336.919 31.92C336.612 31.1467 336.326 30.4933 336.059 29.96C335.806 29.4267 335.506 29.0267 335.159 28.76C334.812 28.48 334.352 28.34 333.779 28.34H330.819V39.34C330.819 39.9933 330.872 40.4667 330.979 40.76C331.099 41.04 331.306 41.2267 331.599 41.32C331.892 41.4 332.306 41.4667 332.839 41.52L333.279 41.56V42.06L330.019 42L326.659 42.06Z" fill="#FDFDFD"/>
<path d="M11.7259 56.6323C10.6912 56.6323 9.75238 56.4982 8.90935 56.2299C8.10463 55.9617 7.41488 55.6743 6.84008 55.3677C6.26528 55.0612 5.80545 54.8312 5.46057 54.678C5.15401 54.5247 4.84745 54.448 4.54089 54.448C4.11938 54.448 3.83198 54.6013 3.6787 54.9079C3.52542 55.2144 3.42962 55.5976 3.3913 56.0575H2.18423L2.35667 51.9764L2.12675 46.3434H3.44878C3.6787 48.7959 4.50257 50.8651 5.92041 52.5512C7.37656 54.199 9.21591 55.0228 11.4385 55.0228C12.8563 55.0228 14.0634 54.6013 15.0597 53.7583C16.056 52.9153 16.5541 51.7848 16.5541 50.367C16.5541 48.7576 16.0943 47.5313 15.1746 46.6883C14.255 45.8453 13.1245 45.1363 11.7833 44.5615L8.67943 43.2395C6.99336 42.5114 5.65217 41.5534 4.65585 40.3655C3.69786 39.1776 3.21886 37.7406 3.21886 36.0546C3.21886 33.9086 3.9661 32.2034 5.46057 30.9389C6.99336 29.6743 8.89019 29.042 11.1511 29.042C11.9558 29.042 12.6838 29.1378 13.3353 29.3294C13.9867 29.521 14.5615 29.7126 15.0597 29.9042C16.1709 30.3641 16.899 30.594 17.2439 30.594C17.4738 30.594 17.6463 30.4982 17.7612 30.3066C17.8762 30.115 17.9528 29.7509 17.9911 29.2145H19.2557L19.1407 32.7782L19.1982 37.2041H17.9911C17.6463 35.1732 16.8799 33.5829 15.692 32.4333C14.5424 31.2454 13.1437 30.6515 11.4959 30.6515C9.96314 30.6515 8.81355 31.0921 8.04715 31.9735C7.28076 32.8549 6.89756 33.7937 6.89756 34.79C6.89756 35.8246 7.14664 36.6868 7.6448 37.3766C8.18127 38.028 8.81355 38.5645 9.54163 38.986C10.2697 39.3692 10.9403 39.7141 11.5534 40.0206L14.255 41.2277C16.4775 42.1857 18.0295 43.3545 18.9108 44.734C19.7922 46.0752 20.2328 47.5313 20.2328 49.1024C20.2328 50.4053 19.888 51.6315 19.1982 52.7811C18.5085 53.9307 17.5313 54.8696 16.2667 55.5976C15.0022 56.2874 13.4886 56.6323 11.7259 56.6323Z" fill="white"/>
<path d="M24.0076 56.1724V54.8504L24.9273 54.7354C26.0386 54.5822 26.8816 54.4097 27.4564 54.2181C28.0695 53.9882 28.4911 53.5092 28.721 52.7811C28.9509 52.0147 29.0659 50.7693 29.0659 49.045V36.8018C29.0659 35.0774 28.9509 33.8512 28.721 33.1231C28.5294 32.3567 28.127 31.8585 27.5139 31.6286C26.9391 31.3987 26.0961 31.2263 24.9848 31.1113L24.0651 30.9963V29.6743L31.1351 29.8467H46.2523V32.3759L46.5972 36.2845H45.3901C45.0069 35.0966 44.6045 34.1386 44.183 33.4105C43.7998 32.6824 43.1867 32.1459 42.3437 31.8011C41.5006 31.4562 40.1978 31.2837 38.435 31.2837H33.0894V41.86H37.8602C38.5117 41.86 39.0673 41.5534 39.5272 40.9403C39.987 40.2889 40.2552 39.0627 40.3319 37.2616H41.5389L41.3665 42.5498L41.5389 48.2977H40.3319C40.3319 46.4201 40.102 45.098 39.6421 44.3316C39.1823 43.5652 38.5308 43.182 37.6878 43.182H33.0894V51.5166C33.0894 52.4746 33.3385 53.2218 33.8367 53.7583C34.3731 54.2948 35.3886 54.563 36.8831 54.563H40.6767C42.1712 54.563 43.2825 54.2948 44.0106 53.7583C44.777 53.2218 45.3326 52.4363 45.6775 51.4016C46.0607 50.367 46.4056 49.1408 46.7121 47.7229H47.9192L47.5168 52.3788V56H31.0776L24.0076 56.1724ZM65.0149 56.6323C62.5241 56.6323 60.359 56 58.5197 54.7354C56.6803 53.4709 55.2625 51.8423 54.2662 49.8497C53.2699 47.8187 52.7717 45.692 52.7717 43.4694C52.7717 40.6721 53.3465 38.2005 54.4961 36.0546C55.684 33.8703 57.2551 32.1651 59.2095 30.9389C61.2021 29.6743 63.4055 29.042 65.8196 29.042C66.5094 29.042 67.3332 29.1378 68.2912 29.3294C69.2876 29.521 70.2072 29.8276 71.0503 30.2491C71.7017 30.5557 72.2382 30.8047 72.6597 30.9963C73.0812 31.1496 73.4261 31.2263 73.6943 31.2263C73.9626 31.2263 74.1733 31.1113 74.3266 30.8814C74.4799 30.6515 74.5757 30.2299 74.614 29.6168H76.051L75.8786 33.7554L75.936 38.4112H74.5565C74.0967 35.8821 73.0812 33.9853 71.5101 32.7207C69.939 31.4179 68.1188 30.7664 66.0495 30.7664C63.9419 30.7664 62.2559 31.3604 60.9913 32.5483C59.7268 33.7362 58.8071 35.3073 58.2323 37.2616C57.6575 39.1776 57.3701 41.2469 57.3701 43.4694C57.3701 45.5387 57.6575 47.4547 58.2323 49.2174C58.8454 50.9418 59.7651 52.3213 60.9913 53.3559C62.2559 54.3906 63.8653 54.9079 65.8196 54.9079C67.5057 54.9079 68.981 54.5055 70.2455 53.7008C71.5101 52.8961 72.5256 51.8231 73.292 50.482C74.0584 49.1024 74.5182 47.5888 74.6715 45.9411H76.051L75.936 50.9418L76.1085 56H75.0738C75.0355 55.6168 74.9206 55.1953 74.729 54.7354C74.5374 54.2756 74.1925 54.0457 73.6943 54.0457C73.5027 54.0457 73.2345 54.1223 72.8896 54.2756C72.5447 54.4289 72.1424 54.6205 71.6825 54.8504C70.9161 55.2336 69.9773 55.6168 68.866 56C67.7548 56.4215 66.4711 56.6323 65.0149 56.6323ZM96.9601 56.5748C94.8525 56.5748 92.9365 56.2491 91.2122 55.5976C89.5261 54.9079 88.1849 53.8158 87.1886 52.3213C86.1923 50.8268 85.6941 48.8917 85.6941 46.5159V36.8018C85.6941 35.0774 85.5792 33.8512 85.3492 33.1231C85.1193 32.3567 84.6978 31.8585 84.0847 31.6286C83.5099 31.3987 82.6668 31.2263 81.5556 31.1113L80.6359 30.9963V29.6743L87.7059 29.8467L94.7759 29.6743V30.9963L93.8562 31.1113C92.745 31.2263 91.8828 31.3987 91.2696 31.6286C90.6948 31.8585 90.2925 32.3567 90.0626 33.1231C89.8326 33.8512 89.7177 35.0774 89.7177 36.8018V46.5159C89.7177 49.1599 90.4074 51.21 91.787 52.6662C93.2048 54.1223 95.1399 54.8504 97.5924 54.8504C99.815 54.8504 101.616 54.1798 102.995 52.8386C104.375 51.4974 105.065 49.3324 105.065 46.3434V36.8593C105.065 35.1349 104.95 33.9086 104.72 33.1806C104.49 32.4142 104.068 31.916 103.455 31.6861C102.881 31.4562 102.037 31.2837 100.926 31.1688L100.007 31.0538V29.7318L105.812 29.8467L111.617 29.7318V31.0538L110.698 31.1688C109.586 31.2837 108.724 31.4562 108.111 31.6861C107.536 31.916 107.134 32.4142 106.904 33.1806C106.674 33.9086 106.559 35.1349 106.559 36.8593V46.3434C106.559 49.7539 105.678 52.3213 103.915 54.0457C102.191 55.7318 99.8724 56.5748 96.9601 56.5748ZM138.036 56.6323C136.695 56.6323 135.584 56.2491 134.702 55.4827C133.821 54.678 133.131 53.0494 132.633 50.5969C132.441 49.524 132.135 48.451 131.713 47.378C131.292 46.3051 130.602 45.4237 129.644 44.734C128.686 44.0059 127.268 43.6419 125.391 43.6419H122.057V49.1024C122.057 50.7885 122.172 52.0147 122.402 52.7811C122.632 53.5092 123.034 53.9882 123.609 54.2181C124.222 54.4097 125.084 54.5822 126.195 54.7354L127.115 54.8504V56.1724L120.102 56L113.09 56.1724V54.8504L114.01 54.7354C115.121 54.5822 115.964 54.4097 116.539 54.2181C117.152 53.9882 117.573 53.5092 117.803 52.7811C118.033 52.0147 118.148 50.7885 118.148 49.1024V36.8018C118.148 35.269 118.033 34.1194 117.803 33.353C117.612 32.5866 117.228 32.0501 116.654 31.7436C116.117 31.437 115.351 31.2454 114.354 31.1688L113.09 31.0538V29.7318L120.16 29.8467H128.092C129.817 29.8467 131.407 30.0575 132.863 30.479C134.319 30.8622 135.488 31.552 136.369 32.5483C137.251 33.5063 137.691 34.8666 137.691 36.6293C137.691 38.2388 137.251 39.5225 136.369 40.4805C135.526 41.4002 134.472 42.0899 133.208 42.5498C131.943 43.0096 130.698 43.3162 129.472 43.4694C131.503 43.661 133.15 44.2741 134.415 45.3088C135.718 46.3434 136.58 48.1636 137.001 50.7693C137.308 52.5704 137.749 53.6817 138.323 54.1032C138.937 54.4864 139.684 54.678 140.565 54.678C140.833 54.678 141.102 54.6396 141.37 54.563C141.638 54.4864 141.868 54.4097 142.06 54.3331L142.347 55.6551C141.849 55.8467 141.236 56.0575 140.508 56.2874C139.78 56.5173 138.956 56.6323 138.036 56.6323ZM127.517 31.2263H122.057V42.2624H126.655C128.993 42.2624 130.66 41.8217 131.656 40.9403C132.652 40.0206 133.15 38.5837 133.15 36.6293C133.15 35.0582 132.767 33.7745 132.001 32.7782C131.273 31.7436 129.778 31.2263 127.517 31.2263ZM143.289 56.1724V54.8504L144.209 54.7354C145.32 54.5822 146.163 54.4097 146.738 54.2181C147.351 53.9882 147.773 53.5092 148.003 52.7811C148.232 52.0147 148.347 50.7693 148.347 49.045V36.8018C148.347 35.0774 148.232 33.8512 148.003 33.1231C147.811 32.3567 147.409 31.8585 146.795 31.6286C146.221 31.3987 145.378 31.2263 144.266 31.1113L143.347 30.9963V29.6743L150.417 29.8467H165.534V32.3759L165.879 36.2845H164.672C164.288 35.0966 163.886 34.1386 163.465 33.4105C163.081 32.6824 162.468 32.1459 161.625 31.8011C160.782 31.4562 159.479 31.2837 157.717 31.2837H152.371V41.86H157.142C157.793 41.86 158.349 41.5534 158.809 40.9403C159.269 40.2889 159.537 39.0627 159.613 37.2616H160.82L160.648 42.5498L160.82 48.2977H159.613C159.613 46.4201 159.384 45.098 158.924 44.3316C158.464 43.5652 157.812 43.182 156.969 43.182H152.371V51.5166C152.371 52.4746 152.62 53.2218 153.118 53.7583C153.655 54.2948 154.67 54.563 156.165 54.563H159.958C161.453 54.563 162.564 54.2948 163.292 53.7583C164.059 53.2218 164.614 52.4363 164.959 51.4016C165.342 50.367 165.687 49.1408 165.994 47.7229H167.201L166.798 52.3788V56H150.359L143.289 56.1724Z" fill="#FBFBFB"/>
<path d="M193.559 53.241C195.135 52.9782 196.646 52.4965 198.092 51.7958C199.581 51.0951 200.916 50.1973 202.099 49.1024C202.186 49.0586 202.361 48.9054 202.624 48.6426C202.887 48.3798 203.062 48.2922 203.15 48.3798C203.237 48.4674 203.215 48.5988 203.084 48.774C202.953 48.9492 202.843 49.1024 202.756 49.2338C201.88 50.5038 200.719 51.5549 199.274 52.387C197.873 53.1753 196.406 53.8103 194.873 54.292C193.603 54.6424 192.245 54.7738 190.8 54.6862C189.355 54.5548 187.997 54.1825 186.727 53.5694C186.333 53.3943 186.092 53.2629 186.004 53.1753C185.917 53.0439 185.917 52.9563 186.004 52.9125C186.092 52.8687 186.223 52.8468 186.399 52.8468C186.618 52.8468 186.815 52.8687 186.99 52.9125C187.472 53.0001 188.019 53.0877 188.632 53.1753C189.289 53.2191 189.924 53.2629 190.537 53.3067C191.194 53.3067 191.785 53.3067 192.311 53.3067C192.836 53.3067 193.252 53.2848 193.559 53.241ZM184.756 33.9278C184.537 35.4606 184.428 36.9715 184.428 38.4605C184.428 39.9057 184.515 41.2852 184.691 42.599C184.91 43.8691 185.216 45.0077 185.61 46.015C186.048 47.0222 186.574 47.8543 187.187 48.5112C187.888 49.2119 188.742 49.7593 189.749 50.1535C190.8 50.5038 191.917 50.679 193.099 50.679C194.325 50.679 195.595 50.5038 196.909 50.1535C198.267 49.8031 199.602 49.2557 200.916 48.5112C201.179 48.336 201.354 48.2922 201.442 48.3798C201.529 48.4674 201.486 48.5769 201.31 48.7083C201.179 48.7959 201.048 48.8835 200.916 48.9711C199.778 49.8469 198.573 50.5476 197.303 51.0732C196.033 51.5987 194.741 51.9272 193.428 52.0585C192.157 52.1899 190.909 52.1242 189.683 51.8615C188.501 51.5549 187.428 51.0075 186.464 50.2192C185.545 49.4309 184.8 48.4893 184.231 47.3945C183.661 46.2558 183.223 45.0296 182.917 43.7158C182.654 42.3582 182.501 40.9567 182.457 39.5115C182.413 38.0663 182.457 36.643 182.588 35.2416C182.764 33.0081 183.202 30.7527 183.902 28.4754C184.603 26.1982 185.523 24.096 186.661 22.1691C187.844 20.2422 189.245 18.5561 190.866 17.1109C192.486 15.6657 194.303 14.6584 196.318 14.0891C197.325 13.8263 198.354 13.7169 199.405 13.7607C200.456 13.8044 201.42 14.0015 202.296 14.3519C203.215 14.7022 204.004 15.2277 204.661 15.9285C205.318 16.5854 205.756 17.3956 205.974 18.359C206.193 19.4101 206.106 20.4392 205.712 21.4465C205.318 22.41 204.77 23.264 204.069 24.0085C203.369 24.7092 202.58 25.2128 201.705 25.5193C200.829 25.8259 199.997 25.8259 199.208 25.5193C199.165 25.5193 199.121 25.4537 199.077 25.3223C199.077 25.1909 199.165 25.1471 199.34 25.1909C199.865 25.2785 200.456 25.169 201.113 24.8624C201.814 24.5121 202.427 24.0522 202.953 23.4829C203.522 22.9136 203.96 22.2348 204.267 21.4465C204.617 20.6582 204.726 19.848 204.595 19.0159C204.464 18.4028 204.179 17.8773 203.741 17.4393C203.347 16.9576 202.821 16.5854 202.164 16.3226C201.508 16.016 200.763 15.819 199.931 15.7314C199.143 15.6438 198.311 15.6876 197.435 15.8628C195.77 16.1693 194.216 16.9138 192.771 18.0963C191.369 19.2349 190.121 20.6363 189.026 22.3005C187.931 23.9647 187.012 25.8259 186.267 27.8842C185.523 29.8988 185.019 31.9133 184.756 33.9278ZM189.946 55.6715C190.428 55.7153 190.909 55.7372 191.391 55.7372C191.917 55.7372 192.179 55.8029 192.179 55.9343C192.179 55.9781 192.092 56 191.917 56C191.741 56.0438 191.544 56.0657 191.325 56.0657C191.15 56.0657 190.953 56.0657 190.734 56.0657C190.515 56.0657 190.384 56.0657 190.34 56.0657C188.982 56.0657 187.647 55.8686 186.333 55.4745C185.019 55.0803 183.793 54.5329 182.654 53.8322C181.559 53.0877 180.574 52.1899 179.698 51.1389C178.822 50.0878 178.165 48.8835 177.727 47.5259C176.851 44.8544 176.348 42.2487 176.216 39.7086C176.085 37.1686 176.195 34.6723 176.545 32.2198C176.72 30.8184 177.049 29.2418 177.53 27.4901C178.056 25.6945 178.735 23.8771 179.567 22.0377C180.443 20.1984 181.516 18.3809 182.786 16.5854C184.099 14.7898 185.654 13.1475 187.45 11.6585C189.333 10.082 191.413 9.03089 193.69 8.50536C196.011 7.97984 198.223 7.89225 200.325 8.2426C202.427 8.59295 204.288 9.33745 205.909 10.4761C207.529 11.5709 208.602 12.9724 209.128 14.6803C209.171 14.7679 209.215 14.965 209.259 15.2715C209.303 15.5343 209.281 15.7095 209.193 15.7971C209.15 15.8409 209.084 15.7314 208.996 15.4686C208.909 15.2059 208.821 15.0307 208.734 14.9431C206.894 12.4468 204.814 10.8702 202.493 10.2133C200.172 9.51263 197.873 9.44694 195.595 10.0163C193.318 10.5418 191.172 11.5491 189.158 13.038C187.143 14.4832 185.545 16.1036 184.362 17.8992C182.304 21.0086 180.727 24.315 179.632 27.8185C178.581 31.3221 178.1 34.9351 178.187 38.6576C178.231 40.3655 178.406 42.1611 178.713 44.0442C179.063 45.9274 179.72 47.7229 180.683 49.4309C181.647 51.1827 182.961 52.6498 184.625 53.8322C186.333 54.9708 188.107 55.584 189.946 55.6715ZM180.486 30.9717C180.837 28.6506 181.384 26.3952 182.129 24.2055C182.917 22.0158 183.924 20.0232 185.15 18.2276C186.42 16.3883 187.975 14.8117 189.814 13.4979C191.654 12.1841 193.822 11.2644 196.318 10.7389C197.194 10.5637 198.179 10.498 199.274 10.5418C200.369 10.5418 201.464 10.7389 202.559 11.133C203.653 11.4834 204.661 12.0308 205.58 12.7753C206.544 13.5198 207.332 14.5489 207.945 15.8628C208.515 17.1328 208.712 18.3809 208.536 19.6072C208.361 20.8334 207.989 21.9501 207.42 22.9574C206.85 23.9209 206.15 24.7311 205.318 25.388C204.486 26.0449 203.675 26.4171 202.887 26.5047C202.405 26.5923 202.143 26.5923 202.099 26.5047C202.055 26.3733 202.296 26.2201 202.821 26.0449C203.653 25.7821 204.486 25.1252 205.318 24.0741C206.193 22.9793 206.719 21.5998 206.894 19.9356C206.982 19.1035 206.872 18.2933 206.566 17.505C206.259 16.673 205.821 15.9504 205.252 15.3372C204.683 14.7241 204.004 14.1986 203.215 13.7607C202.427 13.3227 201.595 13.038 200.719 12.9067C198.836 12.6439 197.106 12.7753 195.53 13.3008C193.953 13.8263 192.574 14.5051 191.391 15.3372C190.252 16.1255 189.311 16.9138 188.566 17.7021C187.866 18.4904 187.428 19.0159 187.253 19.2787C185.895 20.9867 184.712 22.8479 183.705 24.8624C182.698 26.8332 181.866 28.9134 181.209 31.1031C181.209 31.1469 181.165 31.3002 181.078 31.5629C181.034 31.8257 180.968 32.1104 180.881 32.4169C180.837 32.6797 180.771 32.9424 180.683 33.2052C180.596 33.4242 180.53 33.5337 180.486 33.5337C180.399 33.5337 180.355 33.4023 180.355 33.1395C180.355 32.8767 180.355 32.614 180.355 32.3512C180.355 32.0447 180.377 31.76 180.421 31.4972C180.464 31.2345 180.486 31.0593 180.486 30.9717ZM199.774 56.1724V54.8504L200.694 54.7354C201.805 54.5822 202.648 54.4097 203.223 54.2181C203.836 53.9882 204.257 53.5092 204.487 52.7811C204.717 52.0147 204.832 50.7693 204.832 49.045V36.8018C204.832 35.0774 204.717 33.8512 204.487 33.1231C204.257 32.3567 203.836 31.8585 203.223 31.6286C202.648 31.3987 201.805 31.2263 200.694 31.1113L199.774 30.9963V29.6743L206.844 29.8467L213.914 29.6743V30.9963L212.994 31.1113C211.883 31.2263 211.021 31.3987 210.408 31.6286C209.833 31.8585 209.43 32.3567 209.201 33.1231C208.971 33.8512 208.856 35.0774 208.856 36.8018V49.1599C208.856 50.846 209.047 52.168 209.43 53.126C209.852 54.084 210.867 54.563 212.477 54.563H215.638C217.899 54.563 219.528 53.8924 220.524 52.5512C221.559 51.1717 222.191 49.1982 222.421 46.6308H223.743L223.341 56.115L206.844 56L199.774 56.1724ZM239.3 56.6323C237.422 56.6323 235.602 56.3066 233.84 55.6551C232.077 54.9654 230.487 54.0074 229.069 52.7811C227.689 51.5549 226.578 50.0988 225.735 48.4127C224.93 46.7266 224.528 44.8873 224.528 42.8946C224.528 40.7487 224.949 38.8327 225.792 37.1467C226.635 35.4606 227.766 34.0044 229.184 32.7782C230.64 31.552 232.23 30.6323 233.955 30.0192C235.717 29.3677 237.499 29.042 239.3 29.042C240.986 29.042 242.691 29.3486 244.416 29.9617C246.14 30.5365 247.711 31.4179 249.129 32.6058C250.585 33.7937 251.735 35.2498 252.578 36.9742C253.459 38.6603 253.9 40.6338 253.9 42.8946C253.9 44.8873 253.478 46.7266 252.635 48.4127C251.792 50.0604 250.662 51.4974 249.244 52.7237C247.865 53.9499 246.313 54.9079 244.588 55.5976C242.864 56.2874 241.101 56.6323 239.3 56.6323ZM239.3 54.9079C241.676 54.9079 243.592 54.3714 245.048 53.2985C246.504 52.1872 247.577 50.731 248.267 48.93C248.957 47.0907 249.302 45.0789 249.302 42.8946C249.302 39.2543 248.516 36.3228 246.945 34.1002C245.412 31.8777 242.864 30.7664 239.3 30.7664C236.771 30.7664 234.759 31.3221 233.265 32.4333C231.77 33.5063 230.697 34.9624 230.046 36.8018C229.433 38.6028 229.126 40.6338 229.126 42.8946C229.126 45.1172 229.49 47.1481 230.218 48.9875C230.985 50.7885 232.115 52.2255 233.61 53.2985C235.104 54.3714 237.001 54.9079 239.3 54.9079ZM270.768 56.5748C268.661 56.5748 266.745 56.2491 265.021 55.5976C263.334 54.9079 261.993 53.8158 260.997 52.3213C260.001 50.8268 259.502 48.8917 259.502 46.5159V36.8018C259.502 35.0774 259.387 33.8512 259.158 33.1231C258.928 32.3567 258.506 31.8585 257.893 31.6286C257.318 31.3987 256.475 31.2263 255.364 31.1113L254.444 30.9963V29.6743L261.514 29.8467L268.584 29.6743V30.9963L267.665 31.1113C266.553 31.2263 265.691 31.3987 265.078 31.6286C264.503 31.8585 264.101 32.3567 263.871 33.1231C263.641 33.8512 263.526 35.0774 263.526 36.8018V46.5159C263.526 49.1599 264.216 51.21 265.595 52.6662C267.013 54.1223 268.948 54.8504 271.401 54.8504C273.623 54.8504 275.424 54.1798 276.804 52.8386C278.183 51.4974 278.873 49.3324 278.873 46.3434V36.8593C278.873 35.1349 278.758 33.9086 278.528 33.1806C278.298 32.4142 277.877 31.916 277.264 31.6861C276.689 31.4562 275.846 31.2837 274.735 31.1688L273.815 31.0538V29.7318L279.62 29.8467L285.426 29.7318V31.0538L284.506 31.1688C283.395 31.2837 282.533 31.4562 281.92 31.6861C281.345 31.916 280.942 32.4142 280.712 33.1806C280.483 33.9086 280.368 35.1349 280.368 36.8593V46.3434C280.368 49.7539 279.486 52.3213 277.724 54.0457C275.999 55.7318 273.681 56.5748 270.768 56.5748ZM283.967 56.1724V55.0228L284.772 54.9079C285.768 54.7929 286.534 54.6396 287.071 54.448C287.607 54.2564 287.971 53.8158 288.163 53.126C288.393 52.4363 288.508 51.325 288.508 49.7922V36.8018C288.508 35.0774 288.393 33.8512 288.163 33.1231C287.933 32.3567 287.511 31.8585 286.898 31.6286C286.323 31.3987 285.48 31.2263 284.369 31.1113L283.449 30.9963V29.6743L290.519 29.8467H296.21C296.861 29.8467 297.819 29.9042 299.084 30.0192C300.348 30.0958 301.728 30.3449 303.222 30.7664C304.755 31.1496 306.211 31.8011 307.591 32.7207C308.97 33.6021 310.101 34.8475 310.982 36.4569C311.864 38.0663 312.304 40.1356 312.304 42.6647C312.304 45.3854 311.768 47.6271 310.695 49.3898C309.66 51.1142 308.338 52.4554 306.729 53.4134C305.119 54.3714 303.433 55.042 301.671 55.4252C299.946 55.8084 298.375 56 296.957 56H290.29L283.967 56.1724ZM295.233 54.563H297.13C297.475 54.563 298.049 54.5247 298.854 54.448C299.697 54.3331 300.617 54.1032 301.613 53.7583C302.609 53.3751 303.567 52.762 304.487 51.9189C305.445 51.0759 306.211 49.9072 306.786 48.4127C307.399 46.9182 307.706 45.0022 307.706 42.6647C307.706 40.1739 307.38 38.1813 306.729 36.6868C306.077 35.154 305.234 34.0044 304.2 33.238C303.165 32.4717 302.035 31.9543 300.808 31.6861C299.582 31.4179 298.394 31.2837 297.245 31.2837H292.531V50.0796C292.531 51.5741 292.723 52.7045 293.106 53.4709C293.528 54.199 294.236 54.563 295.233 54.563Z" fill="url(#paint0_radial_81_30)"/>
</g>
<defs>
<radialGradient id="paint0_radial_81_30" cx="0" cy="0" r="1" gradientUnits="userSpaceOnUse" gradientTransform="translate(169 31) rotate(1.9275) scale(208.118 41.9548)">
<stop offset="0.0149241" stop-color="#7B5BE2"/>
<stop offset="0.652045" stop-color="#FDF9F9"/>
</radialGradient>
<clipPath id="clip0_81_30">
<rect width="349" height="70" fill="white"/>
</clipPath>
</defs>
</svg>
